<svg xmlns="http://www.w3.org/2000/svg" xmlns:xlink="http://www.w3.org/1999/xlink" contentStyleType="text/css" data-diagram-type="CLASS" height="1127px" preserveAspectRatio="none" style="width:1809px;height:1127px;background:#FFFFFF;" version="1.1" viewBox="0 0 1809 1127" width="1809px" zoomAndPan="magnify"><title>IncidentFlow - Class Diagram (Domain Model)</title><defs/><g><g class="title" data-source-line="1"><text fill="#000000" font-family="sans-serif" font-size="14" font-weight="bold" lengthAdjust="spacing" textLength="360.2607" x="717.3696" y="22.9951">IncidentFlow - Class Diagram (Domain Model)</text></g><!--cluster Domain Layer--><g class="cluster" data-entity="Domain Layer" data-source-line="3" data-uid="ent0002" id="cluster_Domain Layer"><path d="M8.5,43.2969 L118.3076,43.2969 A3.75,3.75 0 0 1 120.8076,45.7969 L127.8076,65.5938 L1799.5,65.5938 A2.5,2.5 0 0 1 1802,68.0938 L1802,1117.7769 A2.5,2.5 0 0 1 1799.5,1120.2769 L8.5,1120.2769 A2.5,2.5 0 0 1 6,1117.7769 L6,45.7969 A2.5,2.5 0 0 1 8.5,43.2969" fill="none" style="stroke:#000000;stroke-width:1.5;"/><line style="stroke:#000000;stroke-width:1.5;" x1="6" x2="127.8076" y1="65.5938" y2="65.5938"/><text fill="#000000" font-family="sans-serif" font-size="14" font-weight="bold" lengthAdjust="spacing" textLength="108.8076" x="10" y="58.292">Domain Layer</text></g><!--class Severity--><g class="entity" data-entity="Severity" data-source-line="5" data-uid="ent0003" id="entity_Severity"><rect fill="#F1F1F1" height="113.1875" rx="2.5" ry="2.5" style="stroke:#181818;stroke-width:0.5;" width="89.8184" x="629.09" y="529.2269"/><ellipse cx="644.09" cy="545.2269" fill="#EB937F" rx="11" ry="11" style="stroke:#181818;stroke-width:1;"/><path d="M640.59,551.7269 L640.59,539.3206 L648.0275,539.3206 L648.0275,541.18 L642.6838,541.18 L642.6838,544.4144 L647.4338,544.4144 L647.4338,546.2113 L642.6838,546.2113 L642.6838,549.8519 L648.0275,549.8519 L648.0275,551.7269 L640.59,551.7269 Z " fill="#000000"/><text fill="#000000" font-family="sans-serif" font-size="14" lengthAdjust="spacing" textLength="57.8184" x="658.09" y="550.0736">Severity</text><line style="stroke:#181818;stroke-width:0.5;" x1="630.09" x2="717.9084" y1="561.2269" y2="561.2269"/><text fill="#000000" font-family="sans-serif" font-size="14" lengthAdjust="spacing" textLength="32.6621" x="635.09" y="578.222">LOW</text><text fill="#000000" font-family="sans-serif" font-size="14" lengthAdjust="spacing" textLength="58.1602" x="635.09" y="594.5189">MEDIUM</text><text fill="#000000" font-family="sans-serif" font-size="14" lengthAdjust="spacing" textLength="36.0322" x="635.09" y="610.8157">HIGH</text><text fill="#000000" font-family="sans-serif" font-size="14" lengthAdjust="spacing" textLength="63.4648" x="635.09" y="627.1126">CRITICAL</text><line style="stroke:#181818;stroke-width:0.5;" x1="630.09" x2="717.9084" y1="634.4144" y2="634.4144"/></g><!--class IncidentState--><g class="entity" data-entity="IncidentState" data-source-line="12" data-uid="ent0004" id="entity_IncidentState"><rect fill="#F1F1F1" height="178.375" rx="2.5" ry="2.5" style="stroke:#181818;stroke-width:0.5;" width="125.5088" x="754.25" y="496.6369"/><ellipse cx="769.25" cy="512.6369" fill="#EB937F" rx="11" ry="11" style="stroke:#181818;stroke-width:1;"/><path d="M765.75,519.1369 L765.75,506.7306 L773.1875,506.7306 L773.1875,508.59 L767.8438,508.59 L767.8438,511.8244 L772.5938,511.8244 L772.5938,513.6213 L767.8438,513.6213 L767.8438,517.2619 L773.1875,517.2619 L773.1875,519.1369 L765.75,519.1369 Z " fill="#000000"/><text fill="#000000" font-family="sans-serif" font-size="14" lengthAdjust="spacing" textLength="93.5088" x="783.25" y="517.4836">IncidentState</text><line style="stroke:#181818;stroke-width:0.5;" x1="755.25" x2="878.7588" y1="528.6369" y2="528.6369"/><text fill="#000000" font-family="sans-serif" font-size="14" lengthAdjust="spacing" textLength="38.7803" x="760.25" y="545.632">OPEN</text><text fill="#000000" font-family="sans-serif" font-size="14" lengthAdjust="spacing" textLength="62.46" x="760.25" y="561.9289">TRIAGED</text><text fill="#000000" font-family="sans-serif" font-size="14" lengthAdjust="spacing" textLength="72.4268" x="760.25" y="578.2257">ASSIGNED</text><text fill="#000000" font-family="sans-serif" font-size="14" lengthAdjust="spacing" textLength="97.9863" x="760.25" y="594.5226">IN_PROGRESS</text><text fill="#000000" font-family="sans-serif" font-size="14" lengthAdjust="spacing" textLength="75.4824" x="760.25" y="610.8195">RESOLVED</text><text fill="#000000" font-family="sans-serif" font-size="14" lengthAdjust="spacing" textLength="57.1074" x="760.25" y="627.1164">CLOSED</text><text fill="#000000" font-family="sans-serif" font-size="14" lengthAdjust="spacing" textLength="83.6719" x="760.25" y="643.4132">CANCELLED</text><text fill="#000000" font-family="sans-serif" font-size="14" lengthAdjust="spacing" textLength="82.6396" x="760.25" y="659.7101">ESCALATED</text><line style="stroke:#181818;stroke-width:0.5;" x1="755.25" x2="878.7588" y1="667.0119" y2="667.0119"/></g><!--class Role--><g class="entity" data-entity="Role" data-source-line="23" data-uid="ent0005" id="entity_Role"><rect fill="#F1F1F1" height="129.4844" rx="2.5" ry="2.5" style="stroke:#181818;stroke-width:0.5;" width="106.3564" x="1197.82" y="974.7969"/><ellipse cx="1232.4222" cy="990.7969" fill="#EB937F" rx="11" ry="11" style="stroke:#181818;stroke-width:1;"/><path d="M1228.9222,997.2969 L1228.9222,984.8906 L1236.3597,984.8906 L1236.3597,986.75 L1231.016,986.75 L1231.016,989.9844 L1235.766,989.9844 L1235.766,991.7813 L1231.016,991.7813 L1231.016,995.4219 L1236.3597,995.4219 L1236.3597,997.2969 L1228.9222,997.2969 Z " fill="#000000"/><text fill="#000000" font-family="sans-serif" font-size="14" lengthAdjust="spacing" textLength="30.7959" x="1250.7783" y="995.6436">Role</text><line style="stroke:#181818;stroke-width:0.5;" x1="1198.82" x2="1303.1764" y1="1006.7969" y2="1006.7969"/><text fill="#000000" font-family="sans-serif" font-size="14" lengthAdjust="spacing" textLength="76.9111" x="1203.82" y="1023.792">OPERATOR</text><text fill="#000000" font-family="sans-serif" font-size="14" lengthAdjust="spacing" textLength="94.3564" x="1203.82" y="1040.0889">COMMANDER</text><text fill="#000000" font-family="sans-serif" font-size="14" lengthAdjust="spacing" textLength="86.748" x="1203.82" y="1056.3857">RESPONDER</text><text fill="#000000" font-family="sans-serif" font-size="14" lengthAdjust="spacing" textLength="71.1279" x="1203.82" y="1072.6826">MANAGER</text><text fill="#000000" font-family="sans-serif" font-size="14" lengthAdjust="spacing" textLength="47.0381" x="1203.82" y="1088.9795">ADMIN</text><line style="stroke:#181818;stroke-width:0.5;" x1="1198.82" x2="1303.1764" y1="1096.2813" y2="1096.2813"/></g><!--class User--><g class="entity" data-entity="User" data-source-line="31" data-uid="ent0006" id="entity_User"><rect fill="#F1F1F1" height="145.7813" rx="2.5" ry="2.5" style="stroke:#181818;stroke-width:0.5;" width="178.0244" x="1161.99" y="752.0069"/><ellipse cx="1230.7971" cy="768.0069" fill="#ADD1B2" rx="11" ry="11" style="stroke:#181818;stroke-width:1;"/><path d="M1231.0315,774.6788 Q1229.8284,774.6788 1228.9378,774.2256 Q1228.0628,773.7725 1227.5784,772.96 Q1227.094,772.1319 1227.094,771.0069 L1227.094,765.6006 Q1227.094,764.4756 1227.5784,763.6631 Q1228.0628,762.835 1228.9378,762.3819 Q1229.8284,761.9288 1231.0315,761.9288 Q1232.219,761.9288 1233.094,762.3819 Q1233.9846,762.835 1234.4846,763.6631 Q1234.9846,764.4756 1234.9846,765.6006 L1232.8284,765.6006 Q1232.8284,764.7256 1232.3596,764.2725 Q1231.9065,763.8038 1231.0315,763.8038 Q1230.1721,763.8038 1229.6878,764.2725 Q1229.219,764.7256 1229.219,765.6006 L1229.219,771.0069 Q1229.219,771.8663 1229.6878,772.335 Q1230.1721,772.8038 1231.0315,772.8038 Q1231.9065,772.8038 1232.3596,772.335 Q1232.8284,771.8663 1232.8284,771.0069 L1234.9846,771.0069 Q1234.9846,772.1319 1234.4846,772.96 Q1233.9846,773.7725 1233.094,774.2256 Q1232.219,774.6788 1231.0315,774.6788 Z " fill="#000000"/><text fill="#000000" font-family="sans-serif" font-size="14" lengthAdjust="spacing" textLength="31.9102" x="1251.2971" y="772.8536">User</text><line style="stroke:#181818;stroke-width:0.5;" x1="1162.99" x2="1339.0144" y1="784.0069" y2="784.0069"/><rect fill="none" height="6" style="stroke:#C82930;stroke-width:1;" width="6" x="1169.99" y="794.6553"/><text fill="#000000" font-family="sans-serif" font-size="14" lengthAdjust="spacing" textLength="57.3467" x="1181.99" y="801.002">id: UUID</text><rect fill="none" height="6" style="stroke:#C82930;stroke-width:1;" width="6" x="1169.99" y="810.9522"/><text fill="#000000" font-family="sans-serif" font-size="14" lengthAdjust="spacing" textLength="66.3154" x="1181.99" y="817.2989">email: str</text><rect fill="none" height="6" style="stroke:#C82930;stroke-width:1;" width="6" x="1169.99" y="827.2491"/><text fill="#000000" font-family="sans-serif" font-size="14" lengthAdjust="spacing" textLength="67.4092" x="1181.99" y="833.5957">name: str</text><rect fill="none" height="6" style="stroke:#C82930;stroke-width:1;" width="6" x="1169.99" y="843.5459"/><text fill="#000000" font-family="sans-serif" font-size="14" lengthAdjust="spacing" textLength="66.7871" x="1181.99" y="849.8926">role: Role</text><rect fill="none" height="6" style="stroke:#C82930;stroke-width:1;" width="6" x="1169.99" y="859.8428"/><text fill="#000000" font-family="sans-serif" font-size="14" lengthAdjust="spacing" textLength="81.6279" x="1181.99" y="866.1895">active: bool</text><rect fill="none" height="6" style="stroke:#C82930;stroke-width:1;" width="6" x="1169.99" y="876.1397"/><text fill="#000000" font-family="sans-serif" font-size="14" lengthAdjust="spacing" textLength="152.0244" x="1181.99" y="882.4864">created_at: DateTime</text><line style="stroke:#181818;stroke-width:0.5;" x1="1162.99" x2="1339.0144" y1="889.7881" y2="889.7881"/></g><!--class Incident--><g class="entity" data-entity="Incident" data-source-line="40" data-uid="ent0007" id="entity_Incident"><rect fill="#F1F1F1" height="341.3438" rx="2.5" ry="2.5" style="stroke:#181818;stroke-width:0.5;" width="283.2705" x="982.36" y="78.2969"/><ellipse cx="1091.5197" cy="94.2969" fill="#ADD1B2" rx="11" ry="11" style="stroke:#181818;stroke-width:1;"/><path d="M1091.754,100.9688 Q1090.5509,100.9688 1089.6603,100.5156 Q1088.7853,100.0625 1088.3009,99.25 Q1087.8165,98.4219 1087.8165,97.2969 L1087.8165,91.8906 Q1087.8165,90.7656 1088.3009,89.9531 Q1088.7853,89.125 1089.6603,88.6719 Q1090.5509,88.2188 1091.754,88.2188 Q1092.9415,88.2188 1093.8165,88.6719 Q1094.7072,89.125 1095.2072,89.9531 Q1095.7072,90.7656 1095.7072,91.8906 L1093.5509,91.8906 Q1093.5509,91.0156 1093.0822,90.5625 Q1092.629,90.0938 1091.754,90.0938 Q1090.8947,90.0938 1090.4103,90.5625 Q1089.9415,91.0156 1089.9415,91.8906 L1089.9415,97.2969 Q1089.9415,98.1563 1090.4103,98.625 Q1090.8947,99.0938 1091.754,99.0938 Q1092.629,99.0938 1093.0822,98.625 Q1093.5509,98.1563 1093.5509,97.2969 L1095.7072,97.2969 Q1095.7072,98.4219 1095.2072,99.25 Q1094.7072,100.0625 1093.8165,100.5156 Q1092.9415,100.9688 1091.754,100.9688 Z " fill="#000000"/><text fill="#000000" font-family="sans-serif" font-size="14" lengthAdjust="spacing" textLength="56.4512" x="1112.0197" y="99.1436">Incident</text><line style="stroke:#181818;stroke-width:0.5;" x1="983.36" x2="1264.6305" y1="110.2969" y2="110.2969"/><rect fill="none" height="6" style="stroke:#C82930;stroke-width:1;" width="6" x="990.36" y="120.9453"/><text fill="#000000" font-family="sans-serif" font-size="14" lengthAdjust="spacing" textLength="57.3467" x="1002.36" y="127.292">id: UUID</text><rect fill="none" height="6" style="stroke:#C82930;stroke-width:1;" width="6" x="990.36" y="137.2422"/><text fill="#000000" font-family="sans-serif" font-size="14" lengthAdjust="spacing" textLength="55.0771" x="1002.36" y="143.5889">title: str</text><rect fill="none" height="6" style="stroke:#C82930;stroke-width:1;" width="6" x="990.36" y="153.5391"/><text fill="#000000" font-family="sans-serif" font-size="14" lengthAdjust="spacing" textLength="105.5469" x="1002.36" y="159.8857">description: str</text><rect fill="none" height="6" style="stroke:#C82930;stroke-width:1;" width="6" x="990.36" y="169.8359"/><text fill="#000000" font-family="sans-serif" font-size="14" lengthAdjust="spacing" textLength="123.2109" x="1002.36" y="176.1826">severity: Severity</text><rect fill="none" height="6" style="stroke:#C82930;stroke-width:1;" width="6" x="990.36" y="186.1328"/><text fill="#000000" font-family="sans-serif" font-size="14" lengthAdjust="spacing" textLength="138.1406" x="1002.36" y="192.4795">state: IncidentState</text><rect fill="none" height="6" style="stroke:#C82930;stroke-width:1;" width="6" x="990.36" y="202.4297"/><text fill="#000000" font-family="sans-serif" font-size="14" lengthAdjust="spacing" textLength="114.8027" x="1002.36" y="208.7764">creator_id: UUID</text><rect fill="#F24D5C" height="6" style="stroke:#C82930;stroke-width:1;" width="6" x="990.36" y="218.7266"/><text fill="#000000" font-family="sans-serif" font-size="14" lengthAdjust="spacing" textLength="197.2578" x="1002.36" y="225.0732">assignee_id: UUID (nullable)</text><rect fill="none" height="6" style="stroke:#C82930;stroke-width:1;" width="6" x="990.36" y="235.0234"/><text fill="#000000" font-family="sans-serif" font-size="14" lengthAdjust="spacing" textLength="152.0244" x="1002.36" y="241.3701">created_at: DateTime</text><rect fill="none" height="6" style="stroke:#C82930;stroke-width:1;" width="6" x="990.36" y="251.3203"/><text fill="#000000" font-family="sans-serif" font-size="14" lengthAdjust="spacing" textLength="156.6045" x="1002.36" y="257.667">updated_at: DateTime</text><rect fill="#F24D5C" height="6" style="stroke:#C82930;stroke-width:1;" width="6" x="990.36" y="267.6172"/><text fill="#000000" font-family="sans-serif" font-size="14" lengthAdjust="spacing" textLength="229.1611" x="1002.36" y="273.9639">resolved_at: DateTime (nullable)</text><rect fill="#F24D5C" height="6" style="stroke:#C82930;stroke-width:1;" width="6" x="990.36" y="283.9141"/><text fill="#000000" font-family="sans-serif" font-size="14" lengthAdjust="spacing" textLength="214.2041" x="1002.36" y="290.2607">closed_at: DateTime (nullable)</text><rect fill="#F24D5C" height="6" style="stroke:#C82930;stroke-width:1;" width="6" x="990.36" y="300.2109"/><text fill="#000000" font-family="sans-serif" font-size="14" lengthAdjust="spacing" textLength="241.4453" x="1002.36" y="306.5576">resolution_summary: str (nullable)</text><line style="stroke:#181818;stroke-width:1;" x1="983.36" x2="1264.6305" y1="313.8594" y2="313.8594"/><ellipse cx="993.36" cy="327.5078" fill="#84BE84" rx="3" ry="3" style="stroke:#038048;stroke-width:1;"/><text fill="#000000" font-family="sans-serif" font-size="14" lengthAdjust="spacing" textLength="230.9248" x="1002.36" y="330.8545">transition_state(new_state, user)</text><ellipse cx="993.36" cy="343.8047" fill="#84BE84" rx="3" ry="3" style="stroke:#038048;stroke-width:1;"/><text fill="#000000" font-family="sans-serif" font-size="14" lengthAdjust="spacing" textLength="179.4229" x="1002.36" y="347.1514">assign(user, commander)</text><ellipse cx="993.36" cy="360.1016" fill="#84BE84" rx="3" ry="3" style="stroke:#038048;stroke-width:1;"/><text fill="#000000" font-family="sans-serif" font-size="14" lengthAdjust="spacing" textLength="178.1035" x="1002.36" y="363.4482">add_comment(text, user)</text><ellipse cx="993.36" cy="376.3984" fill="#84BE84" rx="3" ry="3" style="stroke:#038048;stroke-width:1;"/><text fill="#000000" font-family="sans-serif" font-size="14" lengthAdjust="spacing" textLength="257.2705" x="1002.36" y="379.7451">change_severity(new_severity, user)</text><ellipse cx="993.36" cy="392.6953" fill="#84BE84" rx="3" ry="3" style="stroke:#038048;stroke-width:1;"/><text fill="#000000" font-family="sans-serif" font-size="14" lengthAdjust="spacing" textLength="118.207" x="1002.36" y="396.042">can_close(): bool</text><ellipse cx="993.36" cy="408.9922" fill="#84BE84" rx="3" ry="3" style="stroke:#038048;stroke-width:1;"/><text fill="#000000" font-family="sans-serif" font-size="14" lengthAdjust="spacing" textLength="115.0693" x="1002.36" y="412.3389">is_critical(): bool</text></g><!--class Comment--><g class="entity" data-entity="Comment" data-source-line="62" data-uid="ent0008" id="entity_Comment"><rect fill="#F1F1F1" height="145.7813" rx="2.5" ry="2.5" style="stroke:#181818;stroke-width:0.5;" width="178.0244" x="1161.99" y="512.9369"/><ellipse cx="1212.4563" cy="528.9369" fill="#ADD1B2" rx="11" ry="11" style="stroke:#181818;stroke-width:1;"/><path d="M1212.6907,535.6088 Q1211.4876,535.6088 1210.5969,535.1556 Q1209.7219,534.7025 1209.2376,533.89 Q1208.7532,533.0619 1208.7532,531.9369 L1208.7532,526.5306 Q1208.7532,525.4056 1209.2376,524.5931 Q1209.7219,523.765 1210.5969,523.3119 Q1211.4876,522.8588 1212.6907,522.8588 Q1213.8782,522.8588 1214.7532,523.3119 Q1215.6438,523.765 1216.1438,524.5931 Q1216.6438,525.4056 1216.6438,526.5306 L1214.4876,526.5306 Q1214.4876,525.6556 1214.0188,525.2025 Q1213.5657,524.7338 1212.6907,524.7338 Q1211.8313,524.7338 1211.3469,525.2025 Q1210.8782,525.6556 1210.8782,526.5306 L1210.8782,531.9369 Q1210.8782,532.7963 1211.3469,533.265 Q1211.8313,533.7338 1212.6907,533.7338 Q1213.5657,533.7338 1214.0188,533.265 Q1214.4876,532.7963 1214.4876,531.9369 L1216.6438,531.9369 Q1216.6438,533.0619 1216.1438,533.89 Q1215.6438,534.7025 1214.7532,535.1556 Q1213.8782,535.6088 1212.6907,535.6088 Z " fill="#000000"/><text fill="#000000" font-family="sans-serif" font-size="14" lengthAdjust="spacing" textLength="68.5918" x="1232.9563" y="533.7836">Comment</text><line style="stroke:#181818;stroke-width:0.5;" x1="1162.99" x2="1339.0144" y1="544.9369" y2="544.9369"/><rect fill="none" height="6" style="stroke:#C82930;stroke-width:1;" width="6" x="1169.99" y="555.5853"/><text fill="#000000" font-family="sans-serif" font-size="14" lengthAdjust="spacing" textLength="57.3467" x="1181.99" y="561.932">id: UUID</text><rect fill="none" height="6" style="stroke:#C82930;stroke-width:1;" width="6" x="1169.99" y="571.8822"/><text fill="#000000" font-family="sans-serif" font-size="14" lengthAdjust="spacing" textLength="120.5586" x="1181.99" y="578.2289">incident_id: UUID</text><rect fill="none" height="6" style="stroke:#C82930;stroke-width:1;" width="6" x="1169.99" y="588.1791"/><text fill="#000000" font-family="sans-serif" font-size="14" lengthAdjust="spacing" textLength="110.4824" x="1181.99" y="594.5257">author_id: UUID</text><rect fill="none" height="6" style="stroke:#C82930;stroke-width:1;" width="6" x="1169.99" y="604.4759"/><text fill="#000000" font-family="sans-serif" font-size="14" lengthAdjust="spacing" textLength="55.583" x="1181.99" y="610.8226">text: str</text><rect fill="none" height="6" style="stroke:#C82930;stroke-width:1;" width="6" x="1169.99" y="620.7728"/><text fill="#000000" font-family="sans-serif" font-size="14" lengthAdjust="spacing" textLength="152.0244" x="1181.99" y="627.1195">created_at: DateTime</text><line style="stroke:#181818;stroke-width:1;" x1="1162.99" x2="1339.0144" y1="634.4213" y2="634.4213"/><ellipse cx="1172.99" cy="648.0697" fill="#84BE84" rx="3" ry="3" style="stroke:#038048;stroke-width:1;"/><text fill="#000000" font-family="sans-serif" font-size="14" lengthAdjust="spacing" textLength="128.126" x="1181.99" y="651.4164">get_author(): User</text></g><!--class AuditLog--><g class="entity" data-entity="AuditLog" data-source-line="72" data-uid="ent0009" id="entity_AuditLog"><rect fill="#F1F1F1" height="178.375" rx="2.5" ry="2.5" style="stroke:#181818;stroke-width:0.5;" width="198.751" x="1374.62" y="496.6369"/><ellipse cx="1438.7616" cy="512.6369" fill="#ADD1B2" rx="11" ry="11" style="stroke:#181818;stroke-width:1;"/><path d="M1438.996,519.3088 Q1437.7929,519.3088 1436.9022,518.8556 Q1436.0272,518.4025 1435.5429,517.59 Q1435.0585,516.7619 1435.0585,515.6369 L1435.0585,510.2306 Q1435.0585,509.1056 1435.5429,508.2931 Q1436.0272,507.465 1436.9022,507.0119 Q1437.7929,506.5588 1438.996,506.5588 Q1440.1835,506.5588 1441.0585,507.0119 Q1441.9491,507.465 1442.4491,508.2931 Q1442.9491,509.1056 1442.9491,510.2306 L1440.7929,510.2306 Q1440.7929,509.3556 1440.3241,508.9025 Q1439.871,508.4338 1438.996,508.4338 Q1438.1366,508.4338 1437.6522,508.9025 Q1437.1835,509.3556 1437.1835,510.2306 L1437.1835,515.6369 Q1437.1835,516.4963 1437.6522,516.965 Q1438.1366,517.4338 1438.996,517.4338 Q1439.871,517.4338 1440.3241,516.965 Q1440.7929,516.4963 1440.7929,515.6369 L1442.9491,515.6369 Q1442.9491,516.7619 1442.4491,517.59 Q1441.9491,518.4025 1441.0585,518.8556 Q1440.1835,519.3088 1438.996,519.3088 Z " fill="#000000"/><text fill="#000000" font-family="sans-serif" font-size="14" lengthAdjust="spacing" textLength="61.9678" x="1459.2616" y="517.4836">AuditLog</text><line style="stroke:#181818;stroke-width:0.5;" x1="1375.62" x2="1572.371" y1="528.6369" y2="528.6369"/><rect fill="none" height="6" style="stroke:#C82930;stroke-width:1;" width="6" x="1382.62" y="539.2853"/><text fill="#000000" font-family="sans-serif" font-size="14" lengthAdjust="spacing" textLength="57.3467" x="1394.62" y="545.632">id: UUID</text><rect fill="none" height="6" style="stroke:#C82930;stroke-width:1;" width="6" x="1382.62" y="555.5822"/><text fill="#000000" font-family="sans-serif" font-size="14" lengthAdjust="spacing" textLength="120.5586" x="1394.62" y="561.9289">incident_id: UUID</text><rect fill="none" height="6" style="stroke:#C82930;stroke-width:1;" width="6" x="1382.62" y="571.8791"/><text fill="#000000" font-family="sans-serif" font-size="14" lengthAdjust="spacing" textLength="94.8828" x="1394.62" y="578.2257">user_id: UUID</text><rect fill="none" height="6" style="stroke:#C82930;stroke-width:1;" width="6" x="1382.62" y="588.1759"/><text fill="#000000" font-family="sans-serif" font-size="14" lengthAdjust="spacing" textLength="70.7998" x="1394.62" y="594.5226">action: str</text><rect fill="none" height="6" style="stroke:#C82930;stroke-width:1;" width="6" x="1382.62" y="604.4728"/><text fill="#000000" font-family="sans-serif" font-size="14" lengthAdjust="spacing" textLength="152.8379" x="1394.62" y="610.8195">timestamp: DateTime</text><rect fill="none" height="6" style="stroke:#C82930;stroke-width:1;" width="6" x="1382.62" y="620.7697"/><text fill="#000000" font-family="sans-serif" font-size="14" lengthAdjust="spacing" textLength="90.3164" x="1394.62" y="627.1164">details: JSON</text><line style="stroke:#181818;stroke-width:0.5;" x1="1375.62" x2="1572.371" y1="634.4181" y2="634.4181"/><rect fill="#F24D5C" height="6" style="stroke:#C82930;stroke-width:1;" width="6" x="1382.62" y="645.0666"/><text fill="#000000" font-family="sans-serif" font-size="14" lengthAdjust="spacing" textLength="165.1563" x="1394.62" y="651.4132">old_value: str (nullable)</text><rect fill="#F24D5C" height="6" style="stroke:#C82930;stroke-width:1;" width="6" x="1382.62" y="661.3634"/><text fill="#000000" font-family="sans-serif" font-size="14" lengthAdjust="spacing" textLength="172.751" x="1394.62" y="667.7101">new_value: str (nullable)</text></g><!--class Notification--><g class="entity" data-entity="Notification" data-source-line="83" data-uid="ent0010" id="entity_Notification"><rect fill="#F1F1F1" height="162.0781" rx="2.5" ry="2.5" style="stroke:#181818;stroke-width:0.5;" width="178.0244" x="1607.99" y="504.7869"/><ellipse cx="1652.5877" cy="520.7869" fill="#ADD1B2" rx="11" ry="11" style="stroke:#181818;stroke-width:1;"/><path d="M1652.822,527.4588 Q1651.6189,527.4588 1650.7283,527.0056 Q1649.8533,526.5525 1649.3689,525.74 Q1648.8845,524.9119 1648.8845,523.7869 L1648.8845,518.3806 Q1648.8845,517.2556 1649.3689,516.4431 Q1649.8533,515.615 1650.7283,515.1619 Q1651.6189,514.7088 1652.822,514.7088 Q1654.0095,514.7088 1654.8845,515.1619 Q1655.7752,515.615 1656.2752,516.4431 Q1656.7752,517.2556 1656.7752,518.3806 L1654.6189,518.3806 Q1654.6189,517.5056 1654.1502,517.0525 Q1653.697,516.5838 1652.822,516.5838 Q1651.9627,516.5838 1651.4783,517.0525 Q1651.0095,517.5056 1651.0095,518.3806 L1651.0095,523.7869 Q1651.0095,524.6463 1651.4783,525.115 Q1651.9627,525.5838 1652.822,525.5838 Q1653.697,525.5838 1654.1502,525.115 Q1654.6189,524.6463 1654.6189,523.7869 L1656.7752,523.7869 Q1656.7752,524.9119 1656.2752,525.74 Q1655.7752,526.5525 1654.8845,527.0056 Q1654.0095,527.4588 1652.822,527.4588 Z " fill="#000000"/><text fill="#000000" font-family="sans-serif" font-size="14" lengthAdjust="spacing" textLength="80.3291" x="1673.0877" y="525.6336">Notification</text><line style="stroke:#181818;stroke-width:0.5;" x1="1608.99" x2="1785.0144" y1="536.7869" y2="536.7869"/><rect fill="none" height="6" style="stroke:#C82930;stroke-width:1;" width="6" x="1615.99" y="547.4353"/><text fill="#000000" font-family="sans-serif" font-size="14" lengthAdjust="spacing" textLength="57.3467" x="1627.99" y="553.782">id: UUID</text><rect fill="none" height="6" style="stroke:#C82930;stroke-width:1;" width="6" x="1615.99" y="563.7322"/><text fill="#000000" font-family="sans-serif" font-size="14" lengthAdjust="spacing" textLength="94.8828" x="1627.99" y="570.0789">user_id: UUID</text><rect fill="none" height="6" style="stroke:#C82930;stroke-width:1;" width="6" x="1615.99" y="580.0291"/><text fill="#000000" font-family="sans-serif" font-size="14" lengthAdjust="spacing" textLength="120.5586" x="1627.99" y="586.3757">incident_id: UUID</text><rect fill="none" height="6" style="stroke:#C82930;stroke-width:1;" width="6" x="1615.99" y="596.3259"/><text fill="#000000" font-family="sans-serif" font-size="14" lengthAdjust="spacing" textLength="105.8545" x="1627.99" y="602.6726">event_type: str</text><rect fill="none" height="6" style="stroke:#C82930;stroke-width:1;" width="6" x="1615.99" y="612.6228"/><text fill="#000000" font-family="sans-serif" font-size="14" lengthAdjust="spacing" textLength="90.624" x="1627.99" y="618.9695">message: str</text><rect fill="none" height="6" style="stroke:#C82930;stroke-width:1;" width="6" x="1615.99" y="628.9197"/><text fill="#000000" font-family="sans-serif" font-size="14" lengthAdjust="spacing" textLength="70.9092" x="1627.99" y="635.2664">read: bool</text><rect fill="none" height="6" style="stroke:#C82930;stroke-width:1;" width="6" x="1615.99" y="645.2166"/><text fill="#000000" font-family="sans-serif" font-size="14" lengthAdjust="spacing" textLength="152.0244" x="1627.99" y="651.5632">created_at: DateTime</text><line style="stroke:#181818;stroke-width:0.5;" x1="1608.99" x2="1785.0144" y1="658.865" y2="658.865"/></g><!--class IIncidentRepository--><g class="entity" data-entity="IIncidentRepository" data-source-line="93" data-uid="ent0011" id="entity_IIncidentRepository"><rect fill="#F1F1F1" height="162.0781" rx="2.5" ry="2.5" style="stroke:#181818;stroke-width:0.5;" width="302.124" x="34.94" y="167.9269"/><ellipse cx="113.9258" cy="183.9269" fill="#B4A7E5" rx="11" ry="11" style="stroke:#181818;stroke-width:1;"/><path d="M109.9571,190.4269 L109.9571,188.505 L112.4571,188.505 L112.4571,179.9425 L109.9571,179.9425 L109.9571,178.0206 L117.0977,178.0206 L117.0977,179.9425 L114.5977,179.9425 L114.5977,188.505 L117.0977,188.505 L117.0977,190.4269 L109.9571,190.4269 Z " fill="#000000"/><text fill="#000000" font-family="sans-serif" font-size="14" font-style="italic" lengthAdjust="spacing" textLength="135.6523" x="134.4258" y="188.7736">IIncidentRepository</text><line style="stroke:#181818;stroke-width:0.5;" x1="35.94" x2="336.064" y1="199.9269" y2="199.9269"/><line style="stroke:#181818;stroke-width:0.5;" x1="35.94" x2="336.064" y1="207.9269" y2="207.9269"/><ellipse cx="45.94" cy="221.5753" fill="#84BE84" rx="3" ry="3" style="stroke:#038048;stroke-width:1;"/><text fill="#000000" font-family="sans-serif" font-size="14" lengthAdjust="spacing" textLength="177.502" x="54.94" y="224.922">create(incident): Incident</text><ellipse cx="45.94" cy="237.8722" fill="#84BE84" rx="3" ry="3" style="stroke:#038048;stroke-width:1;"/><text fill="#000000" font-family="sans-serif" font-size="14" lengthAdjust="spacing" textLength="156.2559" x="54.94" y="241.2189">get_by_id(id): Incident</text><ellipse cx="45.94" cy="254.1691" fill="#84BE84" rx="3" ry="3" style="stroke:#038048;stroke-width:1;"/><text fill="#000000" font-family="sans-serif" font-size="14" lengthAdjust="spacing" textLength="182.082" x="54.94" y="257.5157">update(incident): Incident</text><ellipse cx="45.94" cy="270.4659" fill="#84BE84" rx="3" ry="3" style="stroke:#038048;stroke-width:1;"/><text fill="#000000" font-family="sans-serif" font-size="14" lengthAdjust="spacing" textLength="106.5996" x="54.94" y="273.8126">delete(id): void</text><ellipse cx="45.94" cy="286.7628" fill="#84BE84" rx="3" ry="3" style="stroke:#038048;stroke-width:1;"/><text fill="#000000" font-family="sans-serif" font-size="14" lengthAdjust="spacing" textLength="234.6025" x="54.94" y="290.1095">list_by_state(state): List[Incident]</text><ellipse cx="45.94" cy="303.0597" fill="#84BE84" rx="3" ry="3" style="stroke:#038048;stroke-width:1;"/><text fill="#000000" font-family="sans-serif" font-size="14" lengthAdjust="spacing" textLength="276.124" x="54.94" y="306.4064">list_by_severity(severity): List[Incident]</text><ellipse cx="45.94" cy="319.3566" fill="#84BE84" rx="3" ry="3" style="stroke:#038048;stroke-width:1;"/><text fill="#000000" font-family="sans-serif" font-size="14" lengthAdjust="spacing" textLength="276.0283" x="54.94" y="322.7032">list_by_assignee(user_id): List[Incident]</text></g><!--class ICommentRepository--><g class="entity" data-entity="ICommentRepository" data-source-line="103" data-uid="ent0012" id="entity_ICommentRepository"><rect fill="#F1F1F1" height="80.5938" rx="2.5" ry="2.5" style="stroke:#181818;stroke-width:0.5;" width="334.0137" x="371.99" y="208.6669"/><ellipse cx="460.8504" cy="224.6669" fill="#B4A7E5" rx="11" ry="11" style="stroke:#181818;stroke-width:1;"/><path d="M456.8816,231.1669 L456.8816,229.245 L459.3816,229.245 L459.3816,220.6825 L456.8816,220.6825 L456.8816,218.7606 L464.0222,218.7606 L464.0222,220.6825 L461.5222,220.6825 L461.5222,229.245 L464.0222,229.245 L464.0222,231.1669 L456.8816,231.1669 Z " fill="#000000"/><text fill="#000000" font-family="sans-serif" font-size="14" font-style="italic" lengthAdjust="spacing" textLength="147.793" x="481.3504" y="229.5136">ICommentRepository</text><line style="stroke:#181818;stroke-width:0.5;" x1="372.99" x2="705.0037" y1="240.6669" y2="240.6669"/><line style="stroke:#181818;stroke-width:0.5;" x1="372.99" x2="705.0037" y1="248.6669" y2="248.6669"/><ellipse cx="382.99" cy="262.3153" fill="#84BE84" rx="3" ry="3" style="stroke:#038048;stroke-width:1;"/><text fill="#000000" font-family="sans-serif" font-size="14" lengthAdjust="spacing" textLength="199.9443" x="391.99" y="265.662">create(comment): Comment</text><ellipse cx="382.99" cy="278.6122" fill="#84BE84" rx="3" ry="3" style="stroke:#038048;stroke-width:1;"/><text fill="#000000" font-family="sans-serif" font-size="14" lengthAdjust="spacing" textLength="308.0137" x="391.99" y="281.9589">list_by_incident(incident_id): List[Comment]</text></g><!--class IAuditLogRepository--><g class="entity" data-entity="IAuditLogRepository" data-source-line="108" data-uid="ent0013" id="entity_IAuditLogRepository"><rect fill="#F1F1F1" height="80.5938" rx="2.5" ry="2.5" style="stroke:#181818;stroke-width:0.5;" width="327.3896" x="22.31" y="545.5269"/><ellipse cx="111.1704" cy="561.5269" fill="#B4A7E5" rx="11" ry="11" style="stroke:#181818;stroke-width:1;"/><path d="M107.2016,568.0269 L107.2016,566.105 L109.7016,566.105 L109.7016,557.5425 L107.2016,557.5425 L107.2016,555.6206 L114.3422,555.6206 L114.3422,557.5425 L111.8422,557.5425 L111.8422,566.105 L114.3422,566.105 L114.3422,568.0269 L107.2016,568.0269 Z " fill="#000000"/><text fill="#000000" font-family="sans-serif" font-size="14" font-style="italic" lengthAdjust="spacing" textLength="141.1689" x="131.6704" y="566.3736">IAuditLogRepository</text><line style="stroke:#181818;stroke-width:0.5;" x1="23.31" x2="348.6996" y1="577.5269" y2="577.5269"/><line style="stroke:#181818;stroke-width:0.5;" x1="23.31" x2="348.6996" y1="585.5269" y2="585.5269"/><ellipse cx="33.31" cy="599.1753" fill="#84BE84" rx="3" ry="3" style="stroke:#038048;stroke-width:1;"/><text fill="#000000" font-family="sans-serif" font-size="14" lengthAdjust="spacing" textLength="190.8662" x="42.31" y="602.522">create(audit_log): AuditLog</text><ellipse cx="33.31" cy="615.4722" fill="#84BE84" rx="3" ry="3" style="stroke:#038048;stroke-width:1;"/><text fill="#000000" font-family="sans-serif" font-size="14" lengthAdjust="spacing" textLength="301.3896" x="42.31" y="618.8189">list_by_incident(incident_id): List[AuditLog]</text></g><!--class IUserRepository--><g class="entity" data-entity="IUserRepository" data-source-line="113" data-uid="ent0014" id="entity_IUserRepository"><rect fill="#F1F1F1" height="96.8906" rx="2.5" ry="2.5" style="stroke:#181818;stroke-width:0.5;" width="209.3809" x="384.31" y="537.3769"/><ellipse cx="429.1948" cy="553.3769" fill="#B4A7E5" rx="11" ry="11" style="stroke:#181818;stroke-width:1;"/><path d="M425.226,559.8769 L425.226,557.955 L427.726,557.955 L427.726,549.3925 L425.226,549.3925 L425.226,547.4706 L432.3666,547.4706 L432.3666,549.3925 L429.8666,549.3925 L429.8666,557.955 L432.3666,557.955 L432.3666,559.8769 L425.226,559.8769 Z " fill="#000000"/><text fill="#000000" font-family="sans-serif" font-size="14" font-style="italic" lengthAdjust="spacing" textLength="111.1113" x="449.6948" y="558.2236">IUserRepository</text><line style="stroke:#181818;stroke-width:0.5;" x1="385.31" x2="592.6909" y1="569.3769" y2="569.3769"/><line style="stroke:#181818;stroke-width:0.5;" x1="385.31" x2="592.6909" y1="577.3769" y2="577.3769"/><ellipse cx="395.31" cy="591.0253" fill="#84BE84" rx="3" ry="3" style="stroke:#038048;stroke-width:1;"/><text fill="#000000" font-family="sans-serif" font-size="14" lengthAdjust="spacing" textLength="131.7148" x="404.31" y="594.372">get_by_id(id): User</text><ellipse cx="395.31" cy="607.3222" fill="#84BE84" rx="3" ry="3" style="stroke:#038048;stroke-width:1;"/><text fill="#000000" font-family="sans-serif" font-size="14" lengthAdjust="spacing" textLength="183.3809" x="404.31" y="610.6689">get_by_email(email): User</text><ellipse cx="395.31" cy="623.6191" fill="#84BE84" rx="3" ry="3" style="stroke:#038048;stroke-width:1;"/><text fill="#000000" font-family="sans-serif" font-size="14" lengthAdjust="spacing" textLength="131.3184" x="404.31" y="626.9657">list_all(): List[User]</text></g><!--link Incident to User--><g class="link" data-entity-1="Incident" data-entity-2="User" data-source-line="120" data-uid="lnk15" id="link_Incident_User"><path codeLine="120" d="M1000.54,419.9069 C957.97,500.3869 931.2,595.9669 977,675.0069 C1016.02,742.3469 1091.9076,779.1408 1155.9576,800.1008" fill="none" id="Incident-to-User" style="stroke:#181818;stroke-width:1;"/><polygon fill="#181818" points="1161.66,801.9669,1154.3504,795.3661,1156.908,800.4118,1151.8623,802.9694,1161.66,801.9669" style="stroke:#181818;stroke-width:1;"/><text fill="#000000" font-family="sans-serif" font-size="13" lengthAdjust="spacing" textLength="46.8521" x="978" y="590.3938">creator</text></g><!--link Incident to User--><g class="link" data-entity-1="Incident" data-entity-2="User" data-source-line="121" data-uid="lnk16" id="link_Incident_User"><path codeLine="121" d="M1070.68,420.0469 C1054.76,500.4569 1049.7,595.9269 1085,675.0069 C1101.33,711.5969 1126.9163,739.1744 1157.1763,763.5344" fill="none" id="Incident-to-User-1" style="stroke:#181818;stroke-width:1;"/><polygon fill="#181818" points="1161.85,767.2969,1157.3477,758.5373,1157.9552,764.1615,1152.3311,764.769,1161.85,767.2969" style="stroke:#181818;stroke-width:1;"/><text fill="#000000" font-family="sans-serif" font-size="13" lengthAdjust="spacing" textLength="57.6113" x="1086" y="590.3938">assignee</text></g><!--link Incident to Severity--><g class="link" data-entity-1="Incident" data-entity-2="Severity" data-source-line="122" data-uid="lnk17" id="link_Incident_Severity"><path codeLine="122" d="M982.31,322.7469 C904.73,366.7169 809.84,427.5469 737,496.6369 C726.9,506.2169 720.9442,512.8076 712.5042,524.1876" fill="none" id="Incident-to-Severity" style="stroke:#181818;stroke-width:1;"/><polygon fill="#181818" points="708.93,529.0069,717.5041,524.1608,711.9085,524.9908,711.0785,519.3952,708.93,529.0069" style="stroke:#181818;stroke-width:1;"/><text fill="#000000" font-family="sans-serif" font-size="13" lengthAdjust="spacing" textLength="22.9785" x="784.8" y="462.7038">has</text></g><!--link Incident to IncidentState--><g class="link" data-entity-1="Incident" data-entity-2="IncidentState" data-source-line="123" data-uid="lnk18" id="link_Incident_IncidentState"><path codeLine="123" d="M982.11,327.7469 C934.94,359.8969 886.07,401.0969 853,449.6369 C843.5,463.5869 838.2976,474.2025 833.1476,490.6025" fill="none" id="Incident-to-IncidentState" style="stroke:#181818;stroke-width:1;"/><polygon fill="#181818" points="831.35,496.3269,837.8627,488.9387,832.848,491.5565,830.2301,486.5419,831.35,496.3269" style="stroke:#181818;stroke-width:1;"/><text fill="#000000" font-family="sans-serif" font-size="13" lengthAdjust="spacing" textLength="86.8423" x="854" y="462.7038">current_state</text></g><!--link Incident to Comment--><g class="link" data-entity-1="Incident" data-entity-2="Comment" data-source-line="124" data-uid="lnk19" id="link_Incident_Comment"><path codeLine="124" d="M1188.43,419.8469 C1200.83,452.5469 1211.0631,479.5165 1221.4731,506.9765" fill="none" id="Incident-to-Comment" style="stroke:#181818;stroke-width:1;"/><polygon fill="#181818" points="1223.6,512.5869,1224.1499,502.7534,1221.8276,507.9116,1216.6694,505.5892,1223.6,512.5869" style="stroke:#181818;stroke-width:1;"/><text fill="#000000" font-family="sans-serif" font-size="13" lengthAdjust="spacing" textLength="22.9785" x="1203.61" y="462.7038">has</text><text fill="#000000" font-family="sans-serif" font-size="13" lengthAdjust="spacing" textLength="8.271" x="1182.9853" y="439.4419">1</text><text fill="#000000" font-family="sans-serif" font-size="13" lengthAdjust="spacing" textLength="23.0356" x="1196.8938" y="501.9645">0..*</text></g><!--link Incident to AuditLog--><g class="link" data-entity-1="Incident" data-entity-2="AuditLog" data-source-line="125" data-uid="lnk20" id="link_Incident_AuditLog"><path codeLine="125" d="M1266.11,385.9269 C1305.02,423.1569 1341.8545,458.3991 1377.1945,492.2091" fill="none" id="Incident-to-AuditLog" style="stroke:#181818;stroke-width:1;"/><polygon fill="#181818" points="1381.53,496.3569,1377.792,487.2449,1377.9171,492.9004,1372.2617,493.0255,1381.53,496.3569" style="stroke:#181818;stroke-width:1;"/><text fill="#000000" font-family="sans-serif" font-size="13" lengthAdjust="spacing" textLength="62.6704" x="1341.64" y="462.7038">logged_in</text><text fill="#000000" font-family="sans-serif" font-size="13" lengthAdjust="spacing" textLength="8.271" x="1273.651" y="389.6724">1</text><text fill="#000000" font-family="sans-serif" font-size="13" lengthAdjust="spacing" textLength="23.0356" x="1350.2467" y="485.702">0..*</text></g><!--link Incident to Notification--><g class="link" data-entity-1="Incident" data-entity-2="Notification" data-source-line="126" data-uid="lnk21" id="link_Incident_Notification"><path codeLine="126" d="M1266.03,315.3869 C1360.9,361.3869 1486.9,426.9469 1591,496.6369 C1596.57,500.3669 1597.356,500.7827 1602.946,504.8927" fill="none" id="Incident-to-Notification" style="stroke:#181818;stroke-width:1;"/><polygon fill="#181818" points="1607.78,508.4469,1602.8984,499.8929,1603.7516,505.4851,1598.1595,506.3383,1607.78,508.4469" style="stroke:#181818;stroke-width:1;"/><text fill="#000000" font-family="sans-serif" font-size="13" lengthAdjust="spacing" textLength="50.6733" x="1543.89" y="462.7038">triggers</text><text fill="#000000" font-family="sans-serif" font-size="13" lengthAdjust="spacing" textLength="8.271" x="1273.5669" y="315.4952">1</text><text fill="#000000" font-family="sans-serif" font-size="13" lengthAdjust="spacing" textLength="23.0356" x="1577.0698" y="499.0203">0..*</text></g><!--link Notification to Incident--><g class="link" data-entity-1="Notification" data-entity-2="Incident" data-source-line="131" data-uid="lnk25" id="link_Notification_Incident"><path codeLine="131" d="M1652.27,504.5269 C1638.43,484.6969 1621.8,464.8069 1603,449.6369 C1503.71,369.4969 1373.4196,318.6653 1271.6896,287.6753" fill="none" id="Notification-to-Incident" style="stroke:#181818;stroke-width:1;"/><polygon fill="#181818" points="1265.95,285.9269,1273.3938,292.3759,1270.733,287.3839,1275.725,284.7232,1265.95,285.9269" style="stroke:#181818;stroke-width:1;"/><text fill="#000000" font-family="sans-serif" font-size="13" lengthAdjust="spacing" textLength="37.5083" x="1620.47" y="462.7038">about</text></g><!--link Comment to User--><g class="link" data-entity-1="Comment" data-entity-2="User" data-source-line="128" data-uid="lnk22" id="link_Comment_User"><path codeLine="128" d="M1251,658.9169 C1251,688.3469 1251,716.3069 1251,745.7369" fill="none" id="Comment-to-User" style="stroke:#181818;stroke-width:1;"/><polygon fill="#181818" points="1251,751.7369,1255,742.7369,1251,746.7369,1247,742.7369,1251,751.7369" style="stroke:#181818;stroke-width:1;"/><text fill="#000000" font-family="sans-serif" font-size="13" lengthAdjust="spacing" textLength="68.4658" x="1252" y="718.0738">written_by</text></g><!--link AuditLog to User--><g class="link" data-entity-1="AuditLog" data-entity-2="User" data-source-line="129" data-uid="lnk23" id="link_AuditLog_User"><path codeLine="129" d="M1390.65,675.4369 C1367.02,700.5569 1345.6906,723.2262 1323.0906,747.2562" fill="none" id="AuditLog-to-User" style="stroke:#181818;stroke-width:1;"/><polygon fill="#181818" points="1318.98,751.6269,1328.0597,747.8112,1322.4055,747.9846,1322.2321,742.3304,1318.98,751.6269" style="stroke:#181818;stroke-width:1;"/><text fill="#000000" font-family="sans-serif" font-size="13" lengthAdjust="spacing" textLength="90.8286" x="1363.5" y="718.0738">performed_by</text></g><!--link Notification to User--><g class="link" data-entity-1="Notification" data-entity-2="User" data-source-line="130" data-uid="lnk24" id="link_Notification_User"><path codeLine="130" d="M1607.49,664.1169 C1602.02,667.9569 1596.5,671.6169 1591,675.0069 C1510.68,724.6269 1416.5676,764.1092 1345.9376,790.6092" fill="none" id="Notification-to-User" style="stroke:#181818;stroke-width:1;"/><polygon fill="#181818" points="1340.32,792.7169,1350.1516,793.3004,1345.0013,790.9605,1347.3413,785.8102,1340.32,792.7169" style="stroke:#181818;stroke-width:1;"/><text fill="#000000" font-family="sans-serif" font-size="13" lengthAdjust="spacing" textLength="17.875" x="1539.36" y="718.0738">for</text></g><!--link User to Role--><g class="link" data-entity-1="User" data-entity-2="Role" data-source-line="133" data-uid="lnk26" id="link_User_Role"><path codeLine="133" d="M1251,898.1869 C1251,922.9869 1251,944.5469 1251,968.6369" fill="none" id="User-to-Role" style="stroke:#181818;stroke-width:1;"/><polygon fill="#181818" points="1251,974.6369,1255,965.6369,1251,969.6369,1247,965.6369,1251,974.6369" style="stroke:#181818;stroke-width:1;"/><text fill="#000000" font-family="sans-serif" font-size="13" lengthAdjust="spacing" textLength="22.9785" x="1252" y="940.8638">has</text></g><!--SRC=[bLPVRvim47_dKrXv8cjJRQyyJ499bZAHK46oFKmJSi1DhHaS6PCkclRTTpOs1HBQDG_9-Uvy_tvtvqWg6K51cT6SbF8BuyzeXkOCLnLQK7mGk43kWXUObcZDSyAcZdF4sIzy86XY-24-4p51Vnm78LBM1Kh8YGWgpy12y0cZx_ftlLm4kxKcxuFLlIRcSR0Dvdu8Xx_jVHjD8h4anaZqiDneOXi7_cgvqBIV9C5gOmx19ds8erMyJ19z1Y8AlndXF8mII_gR-J8CpMcPW7T_gqyl4SISTHp7_ZQAcxlHUkrl5ilOUdY8sXC88B26zXVhO6CjPhgQkue8OtA6QEwXtIvOc2E1EZ8FLL8OHeaBqZqBYCVJKHa6pYGz0MlFEJEiJ10eLvvYwQ45K5jQa7u8jgvZOKZL2rstEQaoGO-IyhBBhWo-Nekq5IZ0l3v-tUYuI0Sk8InwA0bf-SWjQyRmdf7fwtafKNtCnqI2L9oT1h8hnXcltbJIjcfLXRIgYmABiwx6XU9C_zmWAN1PqKPVbS0joND3tQ8Qsc1gz9haNSMwHHa7osNUaUPvgfXGI5UItx9_Dtl2vO6a5eh6XJaCD76PwZJTQQTVRX2jKW1NqWopZgJJBlF6-LYtK8Fo1QIrVBe4McNGxQ5nL6qL3qIcZIqLdXgVVdX-dLCPyiDxurErkOWv6_OuPtbwmgmcrw56gjwloINa0v0NnulEp8c4QQyyz3M91ZjYmoLz141KC6DfNGj_B5Ne1s3Ayx4trH1O1Vkxjry8plzxcT1I4l68CtWsxAJ7vCYXuxcmE__6M71jQDENjT31Tt-6a5sQNqgRqNxbEhn5H2cekoTESyDcjD9ccy7Jtw0G0lU7DV1pg6fdo19lNR1BopLONDCVLieCqtYXpAY3BQCwS6ehuNR0jexDZMj-xPICEyPA8sNy0DQizZjysolNdAkXlU9uWBmPxOv4luUk_kxBTK2OwOMblIjPunbyj-_RRFQvUMyz- -vSbLaS-yBstuk7dd3Lb_N_cO3rMWXL3jrdBwgJJnEjFlbuT_TXqYxIWS61LhlFF0HW763uQ3cgtDiK7hmu56w8od6ihqwQpv2D92KKrcbzTCH7G8kB0lo1GizkHmaqBcLjS53AFQ-busXj9T9_e9fy_m40]--></g></svg>