<svg xmlns="http://www.w3.org/2000/svg" xmlns:xlink="http://www.w3.org/1999/xlink" contentStyleType="text/css" data-diagram-type="SEQUENCE" height="2355px" preserveAspectRatio="none" style="width:1965px;height:2355px;background:#FFFFFF;" version="1.1" viewBox="0 0 1965 2355" width="1965px" zoomAndPan="magnify"><title>IncidentFlow - Sequence: CRITICAL Incident Creation &amp; Escalation</title><defs/><g><text fill="#000000" font-family="sans-serif" font-size="14" font-weight="bold" lengthAdjust="spacing" textLength="519.5859" x="722.124" y="27.9951">IncidentFlow - Sequence: CRITICAL Incident Creation &amp; Escalation</text><rect fill="none" height="185.9297" style="stroke:#000000;stroke-width:1.5;" width="1030.8208" x="839.7974" y="411.9219"/><g><title>Operator</title><rect fill="#000000" fill-opacity="0.00000" height="2156.3594" width="8" x="35.3325" y="118.5938"/><line style="stroke:#181818;stroke-width:0.5;stroke-dasharray:5,5;" x1="39" x2="39" y1="118.5938" y2="2274.9531"/></g><g><title>Frontend</title><rect fill="#000000" fill-opacity="0.00000" height="2156.3594" width="8" x="235.9116" y="118.5938"/><line style="stroke:#181818;stroke-width:0.5;stroke-dasharray:5,5;" x1="239.3569" x2="239.3569" y1="118.5938" y2="2274.9531"/></g><g><title>API</title><rect fill="#000000" fill-opacity="0.00000" height="2156.3594" width="8" x="509.5142" y="118.5938"/><line style="stroke:#181818;stroke-width:0.5;stroke-dasharray:5,5;" x1="513.2705" x2="513.2705" y1="118.5938" y2="2274.9531"/></g><g><title>Application</title><rect fill="#000000" fill-opacity="0.00000" height="2156.3594" width="8" x="891.9092" y="118.5938"/><line style="stroke:#181818;stroke-width:0.5;stroke-dasharray:5,5;" x1="895.7974" x2="895.7974" y1="118.5938" y2="2274.9531"/></g><g><title>Database</title><rect fill="#000000" fill-opacity="0.00000" height="2156.3594" width="8" x="1171.2627" y="118.5938"/><line style="stroke:#181818;stroke-width:0.5;stroke-dasharray:5,5;" x1="1174.8623" x2="1174.8623" y1="118.5938" y2="2274.9531"/></g><g><title>Event Bus</title><rect fill="#000000" fill-opacity="0.00000" height="2156.3594" width="8" x="1263.8271" y="118.5938"/><line style="stroke:#181818;stroke-width:0.5;stroke-dasharray:5,5;" x1="1267.6631" x2="1267.6631" y1="118.5938" y2="2274.9531"/></g><g><title>Commander</title><rect fill="#000000" fill-opacity="0.00000" height="2156.3594" width="8" x="1362.1533" y="118.5938"/><line style="stroke:#181818;stroke-width:0.5;stroke-dasharray:5,5;" x1="1365.9912" x2="1365.9912" y1="118.5938" y2="2274.9531"/></g><g><title>Manager</title><rect fill="#000000" fill-opacity="0.00000" height="2156.3594" width="8" x="1451.9985" y="118.5938"/><line style="stroke:#181818;stroke-width:0.5;stroke-dasharray:5,5;" x1="1455.3154" x2="1455.3154" y1="118.5938" y2="2274.9531"/></g><g><title>CommanderNotifications</title><rect fill="#000000" fill-opacity="0.00000" height="2156.3594" width="8" x="1589.6553" y="118.5938"/><line style="stroke:#181818;stroke-width:0.5;stroke-dasharray:5,5;" x1="1592.6816" x2="1592.6816" y1="118.5938" y2="2274.9531"/></g><g><title>ManagerNotifications</title><rect fill="#000000" fill-opacity="0.00000" height="2156.3594" width="8" x="1775.1235" y="118.5938"/><line style="stroke:#181818;stroke-width:0.5;stroke-dasharray:5,5;" x1="1778.6289" x2="1778.6289" y1="118.5938" y2="2274.9531"/></g><g><title>Responder</title><rect fill="#000000" fill-opacity="0.00000" height="2156.3594" width="8" x="1911.2261" y="118.5938"/><line style="stroke:#181818;stroke-width:0.5;stroke-dasharray:5,5;" x1="1914.6182" x2="1914.6182" y1="118.5938" y2="2274.9531"/></g><g class="participant participant-head" data-participant="Operator"><text fill="#000000" font-family="sans-serif" font-size="14" lengthAdjust="spacing" textLength="62.665" x="5" y="115.292">Operator</text><ellipse cx="39.3325" cy="50.7969" fill="#E2E2F0" rx="8" ry="8" style="stroke:#181818;stroke-width:0.5;"/><path d="M39.3325,58.7969 L39.3325,85.7969 M26.3325,66.7969 L52.3325,66.7969 M39.3325,85.7969 L26.3325,100.7969 M39.3325,85.7969 L52.3325,100.7969" fill="none" style="stroke:#181818;stroke-width:0.5;"/></g><g class="participant participant-tail" data-participant="Operator"><text fill="#000000" font-family="sans-serif" font-size="14" lengthAdjust="spacing" textLength="62.665" x="5" y="2286.9482">Operator</text><ellipse cx="39.3325" cy="2298.75" fill="#E2E2F0" rx="8" ry="8" style="stroke:#181818;stroke-width:0.5;"/><path d="M39.3325,2306.75 L39.3325,2333.75 M26.3325,2314.75 L52.3325,2314.75 M39.3325,2333.75 L26.3325,2348.75 M39.3325,2333.75 L52.3325,2348.75" fill="none" style="stroke:#181818;stroke-width:0.5;"/></g><g class="participant participant-head" data-participant="Frontend"><rect fill="#E2E2F0" height="30.2969" rx="2.5" ry="2.5" style="stroke:#181818;stroke-width:0.5;" width="77.1094" x="201.3569" y="87.2969"/><text fill="#000000" font-family="sans-serif" font-size="14" lengthAdjust="spacing" textLength="63.1094" x="208.3569" y="107.292">Frontend</text></g><g class="participant participant-tail" data-participant="Frontend"><rect fill="#E2E2F0" height="30.2969" rx="2.5" ry="2.5" style="stroke:#181818;stroke-width:0.5;" width="77.1094" x="201.3569" y="2273.9531"/><text fill="#000000" font-family="sans-serif" font-size="14" lengthAdjust="spacing" textLength="63.1094" x="208.3569" y="2293.9482">Frontend</text></g><g class="participant participant-head" data-participant="API"><rect fill="#E2E2F0" height="46.5938" rx="2.5" ry="2.5" style="stroke:#181818;stroke-width:0.5;" width="76.4873" x="475.2705" y="71"/><text fill="#000000" font-family="sans-serif" font-size="14" lengthAdjust="spacing" textLength="22.1484" x="502.4399" y="90.9951">API</text><text fill="#000000" font-family="sans-serif" font-size="14" lengthAdjust="spacing" textLength="62.4873" x="482.2705" y="107.292">(FastAPI)</text></g><g class="participant participant-tail" data-participant="API"><rect fill="#E2E2F0" height="46.5938" rx="2.5" ry="2.5" style="stroke:#181818;stroke-width:0.5;" width="76.4873" x="475.2705" y="2273.9531"/><text fill="#000000" font-family="sans-serif" font-size="14" lengthAdjust="spacing" textLength="22.1484" x="502.4399" y="2293.9482">API</text><text fill="#000000" font-family="sans-serif" font-size="14" lengthAdjust="spacing" textLength="62.4873" x="482.2705" y="2310.2451">(FastAPI)</text></g><g class="participant participant-head" data-participant="App"><rect fill="#E2E2F0" height="46.5938" rx="2.5" ry="2.5" style="stroke:#181818;stroke-width:0.5;" width="92.2236" x="849.7974" y="71"/><text fill="#000000" font-family="sans-serif" font-size="14" lengthAdjust="spacing" textLength="78.2236" x="856.7974" y="90.9951">Application</text><text fill="#000000" font-family="sans-serif" font-size="14" lengthAdjust="spacing" textLength="39.0332" x="876.3926" y="107.292">Layer</text></g><g class="participant participant-tail" data-participant="App"><rect fill="#E2E2F0" height="46.5938" rx="2.5" ry="2.5" style="stroke:#181818;stroke-width:0.5;" width="92.2236" x="849.7974" y="2273.9531"/><text fill="#000000" font-family="sans-serif" font-size="14" lengthAdjust="spacing" textLength="78.2236" x="856.7974" y="2293.9482">Application</text><text fill="#000000" font-family="sans-serif" font-size="14" lengthAdjust="spacing" textLength="39.0332" x="876.3926" y="2310.2451">Layer</text></g><g class="participant participant-head" data-participant="Database"><rect fill="#E2E2F0" height="30.2969" rx="2.5" ry="2.5" style="stroke:#181818;stroke-width:0.5;" width="80.8008" x="1134.8623" y="87.2969"/><text fill="#000000" font-family="sans-serif" font-size="14" lengthAdjust="spacing" textLength="66.8008" x="1141.8623" y="107.292">Database</text></g><g class="participant participant-tail" data-participant="Database"><rect fill="#E2E2F0" height="30.2969" rx="2.5" ry="2.5" style="stroke:#181818;stroke-width:0.5;" width="80.8008" x="1134.8623" y="2273.9531"/><text fill="#000000" font-family="sans-serif" font-size="14" lengthAdjust="spacing" textLength="66.8008" x="1141.8623" y="2293.9482">Database</text></g><g class="participant participant-head" data-participant="EventBus"><rect fill="#E2E2F0" height="30.2969" rx="2.5" ry="2.5" style="stroke:#181818;stroke-width:0.5;" width="84.3281" x="1225.6631" y="87.2969"/><text fill="#000000" font-family="sans-serif" font-size="14" lengthAdjust="spacing" textLength="70.3281" x="1232.6631" y="107.292">Event Bus</text></g><g class="participant participant-tail" data-participant="EventBus"><rect fill="#E2E2F0" height="30.2969" rx="2.5" ry="2.5" style="stroke:#181818;stroke-width:0.5;" width="84.3281" x="1225.6631" y="2273.9531"/><text fill="#000000" font-family="sans-serif" font-size="14" lengthAdjust="spacing" textLength="70.3281" x="1232.6631" y="2293.9482">Event Bus</text></g><g class="participant participant-head" data-participant="Commander"><text fill="#000000" font-family="sans-serif" font-size="14" lengthAdjust="spacing" textLength="86.3242" x="1319.9912" y="115.292">Commander</text><ellipse cx="1366.1533" cy="50.7969" fill="#E2E2F0" rx="8" ry="8" style="stroke:#181818;stroke-width:0.5;"/><path d="M1366.1533,58.7969 L1366.1533,85.7969 M1353.1533,66.7969 L1379.1533,66.7969 M1366.1533,85.7969 L1353.1533,100.7969 M1366.1533,85.7969 L1379.1533,100.7969" fill="none" style="stroke:#181818;stroke-width:0.5;"/></g><g class="participant participant-tail" data-participant="Commander"><text fill="#000000" font-family="sans-serif" font-size="14" lengthAdjust="spacing" textLength="86.3242" x="1319.9912" y="2286.9482">Commander</text><ellipse cx="1366.1533" cy="2298.75" fill="#E2E2F0" rx="8" ry="8" style="stroke:#181818;stroke-width:0.5;"/><path d="M1366.1533,2306.75 L1366.1533,2333.75 M1353.1533,2314.75 L1379.1533,2314.75 M1366.1533,2333.75 L1353.1533,2348.75 M1366.1533,2333.75 L1379.1533,2348.75" fill="none" style="stroke:#181818;stroke-width:0.5;"/></g><g class="participant participant-head" data-participant="Manager"><text fill="#000000" font-family="sans-serif" font-size="14" lengthAdjust="spacing" textLength="61.3662" x="1422.3154" y="115.292">Manager</text><ellipse cx="1455.9985" cy="50.7969" fill="#E2E2F0" rx="8" ry="8" style="stroke:#181818;stroke-width:0.5;"/><path d="M1455.9985,58.7969 L1455.9985,85.7969 M1442.9985,66.7969 L1468.9985,66.7969 M1455.9985,85.7969 L1442.9985,100.7969 M1455.9985,85.7969 L1468.9985,100.7969" fill="none" style="stroke:#181818;stroke-width:0.5;"/></g><g class="participant participant-tail" data-participant="Manager"><text fill="#000000" font-family="sans-serif" font-size="14" lengthAdjust="spacing" textLength="61.3662" x="1422.3154" y="2286.9482">Manager</text><ellipse cx="1455.9985" cy="2298.75" fill="#E2E2F0" rx="8" ry="8" style="stroke:#181818;stroke-width:0.5;"/><path d="M1455.9985,2306.75 L1455.9985,2333.75 M1442.9985,2314.75 L1468.9985,2314.75 M1455.9985,2333.75 L1442.9985,2348.75 M1455.9985,2333.75 L1468.9985,2348.75" fill="none" style="stroke:#181818;stroke-width:0.5;"/></g><g class="participant participant-head" data-participant="CommanderNotifications"><rect fill="#E2E2F0" height="30.2969" rx="2.5" ry="2.5" style="stroke:#181818;stroke-width:0.5;" width="187.9473" x="1499.6816" y="87.2969"/><text fill="#000000" font-family="sans-serif" font-size="14" lengthAdjust="spacing" textLength="173.9473" x="1506.6816" y="107.292">CommanderNotifications</text></g><g class="participant participant-tail" data-participant="CommanderNotifications"><rect fill="#E2E2F0" height="30.2969" rx="2.5" ry="2.5" style="stroke:#181818;stroke-width:0.5;" width="187.9473" x="1499.6816" y="2273.9531"/><text fill="#000000" font-family="sans-serif" font-size="14" lengthAdjust="spacing" textLength="173.9473" x="1506.6816" y="2293.9482">CommanderNotifications</text></g><g class="participant participant-head" data-participant="ManagerNotifications"><rect fill="#E2E2F0" height="30.2969" rx="2.5" ry="2.5" style="stroke:#181818;stroke-width:0.5;" width="162.9893" x="1697.6289" y="87.2969"/><text fill="#000000" font-family="sans-serif" font-size="14" lengthAdjust="spacing" textLength="148.9893" x="1704.6289" y="107.292">ManagerNotifications</text></g><g class="participant participant-tail" data-participant="ManagerNotifications"><rect fill="#E2E2F0" height="30.2969" rx="2.5" ry="2.5" style="stroke:#181818;stroke-width:0.5;" width="162.9893" x="1697.6289" y="2273.9531"/><text fill="#000000" font-family="sans-serif" font-size="14" lengthAdjust="spacing" textLength="148.9893" x="1704.6289" y="2293.9482">ManagerNotifications</text></g><g class="participant participant-head" data-participant="Responder"><rect fill="#E2E2F0" height="30.2969" rx="2.5" ry="2.5" style="stroke:#181818;stroke-width:0.5;" width="89.2158" x="1870.6182" y="87.2969"/><text fill="#000000" font-family="sans-serif" font-size="14" lengthAdjust="spacing" textLength="75.2158" x="1877.6182" y="107.292">Responder</text></g><g class="participant participant-tail" data-participant="Responder"><rect fill="#E2E2F0" height="30.2969" rx="2.5" ry="2.5" style="stroke:#181818;stroke-width:0.5;" width="89.2158" x="1870.6182" y="2273.9531"/><text fill="#000000" font-family="sans-serif" font-size="14" lengthAdjust="spacing" textLength="75.2158" x="1877.6182" y="2293.9482">Responder</text></g><g class="message" data-participant-1="Operator" data-participant-2="Frontend"><polygon fill="#181818" points="227.9116,160.8594,237.9116,164.8594,227.9116,168.8594,231.9116,164.8594" style="stroke:#181818;stroke-width:1;"/><line style="stroke:#181818;stroke-width:1;" x1="39.3325" x2="233.9116" y1="164.8594" y2="164.8594"/><text fill="#000000" font-family="sans-serif" font-size="13" lengthAdjust="spacing" textLength="162.8745" x="46.3325" y="144.6606">Create CRITICAL incident</text><text fill="#000000" font-family="sans-serif" font-size="13" lengthAdjust="spacing" textLength="176.5791" x="46.3325" y="159.7935">(title, description, severity)</text></g><g class="message" data-participant-1="Frontend" data-participant-2="API"><polygon fill="#181818" points="501.5142,205.125,511.5142,209.125,501.5142,213.125,505.5142,209.125" style="stroke:#181818;stroke-width:1;"/><line style="stroke:#181818;stroke-width:1;" x1="239.9116" x2="507.5142" y1="209.125" y2="209.125"/><text fill="#000000" font-family="sans-serif" font-size="13" lengthAdjust="spacing" textLength="101.7466" x="246.9116" y="188.9263">POST /incidents</text><text fill="#000000" font-family="sans-serif" font-size="13" lengthAdjust="spacing" textLength="136.1953" x="246.9116" y="204.0591">{severity: CRITICAL}</text></g><g class="message" data-participant-1="API" data-participant-2="App"><polygon fill="#181818" points="883.9092,234.2578,893.9092,238.2578,883.9092,242.2578,887.9092,238.2578" style="stroke:#181818;stroke-width:1;"/><line style="stroke:#181818;stroke-width:1;" x1="513.5142" x2="889.9092" y1="238.2578" y2="238.2578"/><text fill="#000000" font-family="sans-serif" font-size="13" lengthAdjust="spacing" textLength="194.0225" x="520.5142" y="233.1919">CreateIncident(incident_data)</text></g><g class="message" data-participant-1="App" data-participant-2="App"><line style="stroke:#181818;stroke-width:1;" x1="895.9092" x2="937.9092" y1="267.3906" y2="267.3906"/><line style="stroke:#181818;stroke-width:1;" x1="937.9092" x2="937.9092" y1="267.3906" y2="280.3906"/><line style="stroke:#181818;stroke-width:1;" x1="896.9092" x2="937.9092" y1="280.3906" y2="280.3906"/><polygon fill="#181818" points="906.9092,276.3906,896.9092,280.3906,906.9092,284.3906,902.9092,280.3906" style="stroke:#181818;stroke-width:1;"/><text fill="#000000" font-family="sans-serif" font-size="13" lengthAdjust="spacing" textLength="121.0371" x="902.9092" y="262.3247">validate_incident()</text></g><g class="message" data-participant-1="App" data-participant-2="Database"><polygon fill="#181818" points="1163.2627,305.5234,1173.2627,309.5234,1163.2627,313.5234,1167.2627,309.5234" style="stroke:#181818;stroke-width:1;"/><line style="stroke:#181818;stroke-width:1;" x1="895.9092" x2="1169.2627" y1="309.5234" y2="309.5234"/><text fill="#000000" font-family="sans-serif" font-size="13" lengthAdjust="spacing" textLength="92.771" x="902.9092" y="304.4575">save(incident)</text></g><g class="message" data-participant-1="Database" data-participant-2="App"><polygon fill="#181818" points="906.9092,334.6563,896.9092,338.6563,906.9092,342.6563,902.9092,338.6563" style="stroke:#181818;stroke-width:1;"/><line style="stroke:#181818;stroke-width:1;stroke-dasharray:2,2;" x1="900.9092" x2="1174.2627" y1="338.6563" y2="338.6563"/><text fill="#000000" font-family="sans-serif" font-size="13" lengthAdjust="spacing" textLength="70.5605" x="912.9092" y="333.5903">incident_id</text></g><g class="message" data-participant-1="App" data-participant-2="EventBus"><polygon fill="#181818" points="1255.8271,363.7891,1265.8271,367.7891,1255.8271,371.7891,1259.8271,367.7891" style="stroke:#181818;stroke-width:1;"/><line style="stroke:#181818;stroke-width:1;" x1="895.9092" x2="1261.8271" y1="367.7891" y2="367.7891"/><text fill="#000000" font-family="sans-serif" font-size="13" lengthAdjust="spacing" textLength="187.3638" x="902.9092" y="362.7231">publish(INCIDENT_CREATED)</text></g><g class="message" data-participant-1="EventBus" data-participant-2="App"><polygon fill="#181818" points="906.9092,392.9219,896.9092,396.9219,906.9092,400.9219,902.9092,396.9219" style="stroke:#181818;stroke-width:1;"/><line style="stroke:#181818;stroke-width:1;stroke-dasharray:2,2;" x1="900.9092" x2="1266.8271" y1="396.9219" y2="396.9219"/><text fill="#000000" font-family="sans-serif" font-size="13" lengthAdjust="spacing" textLength="10.8926" x="912.9092" y="391.856">&#10003;</text></g><path d="M839.7974,411.9219 L904.2402,411.9219 L904.2402,419.0547 L894.2402,429.0547 L839.7974,429.0547 L839.7974,411.9219" fill="#EEEEEE" style="stroke:#000000;stroke-width:1.5;"/><rect fill="none" height="185.9297" style="stroke:#000000;stroke-width:1.5;" width="1030.8208" x="839.7974" y="411.9219"/><text fill="#000000" font-family="sans-serif" font-size="13" font-weight="bold" lengthAdjust="spacing" textLength="19.4429" x="854.7974" y="424.9888">alt</text><text fill="#000000" font-family="sans-serif" font-size="11" font-weight="bold" lengthAdjust="spacing" textLength="121.3491" x="919.2402" y="424.1323">[CRITICAL Severity]</text><g class="message" data-participant-1="App" data-participant-2="EventBus"><polygon fill="#181818" points="1255.8271,446.1875,1265.8271,450.1875,1255.8271,454.1875,1259.8271,450.1875" style="stroke:#181818;stroke-width:1;"/><line style="stroke:#181818;stroke-width:1;" x1="895.9092" x2="1261.8271" y1="450.1875" y2="450.1875"/><text fill="#000000" font-family="sans-serif" font-size="13" lengthAdjust="spacing" textLength="198.3896" x="902.9092" y="445.1216">publish(NOTIFY_COMMANDER)</text></g><g class="message" data-participant-1="EventBus" data-participant-2="CommanderNotifications"><polygon fill="#181818" points="1581.6553,475.3203,1591.6553,479.3203,1581.6553,483.3203,1585.6553,479.3203" style="stroke:#181818;stroke-width:1;"/><line style="stroke:#181818;stroke-width:1;stroke-dasharray:2,2;" x1="1267.8271" x2="1587.6553" y1="479.3203" y2="479.3203"/><text fill="#000000" font-family="sans-serif" font-size="13" lengthAdjust="spacing" textLength="117.9648" x="1274.8271" y="474.2544">queue notification</text></g><g class="message" data-participant-1="App" data-participant-2="EventBus"><polygon fill="#181818" points="1255.8271,504.4531,1265.8271,508.4531,1255.8271,512.4531,1259.8271,508.4531" style="stroke:#181818;stroke-width:1;"/><line style="stroke:#181818;stroke-width:1;" x1="895.9092" x2="1261.8271" y1="508.4531" y2="508.4531"/><text fill="#000000" font-family="sans-serif" font-size="13" lengthAdjust="spacing" textLength="176.8203" x="902.9092" y="503.3872">publish(NOTIFY_MANAGER)</text></g><g class="message" data-participant-1="EventBus" data-participant-2="ManagerNotifications"><polygon fill="#181818" points="1767.1235,533.5859,1777.1235,537.5859,1767.1235,541.5859,1771.1235,537.5859" style="stroke:#181818;stroke-width:1;"/><line style="stroke:#181818;stroke-width:1;stroke-dasharray:2,2;" x1="1267.8271" x2="1773.1235" y1="537.5859" y2="537.5859"/><text fill="#000000" font-family="sans-serif" font-size="13" lengthAdjust="spacing" textLength="117.9648" x="1274.8271" y="532.52">queue notification</text></g><line style="stroke:#000000;stroke-width:1;stroke-dasharray:2,2;" x1="839.7974" x2="1870.6182" y1="546.5859" y2="546.5859"/><path d="M1177,552.5859 L1177,592.5859 L1357,592.5859 L1357,562.5859 L1347,552.5859 L1177,552.5859" fill="#FEFFDD" style="stroke:#181818;stroke-width:0.5;"/><path d="M1347,552.5859 L1347,562.5859 L1357,562.5859 L1347,552.5859" fill="#FEFFDD" style="stroke:#181818;stroke-width:0.5;"/><text fill="#000000" font-family="sans-serif" font-size="13" lengthAdjust="spacing" textLength="152.6421" x="1183" y="569.6528">Non-CRITICAL incidents</text><text fill="#000000" font-family="sans-serif" font-size="13" lengthAdjust="spacing" textLength="159.7197" x="1183" y="584.7856">don't notify immediately</text><g class="message" data-participant-1="App" data-participant-2="API"><polygon fill="#181818" points="524.5142,621.9844,514.5142,625.9844,524.5142,629.9844,520.5142,625.9844" style="stroke:#181818;stroke-width:1;"/><line style="stroke:#181818;stroke-width:1;stroke-dasharray:2,2;" x1="518.5142" x2="894.9092" y1="625.9844" y2="625.9844"/><text fill="#000000" font-family="sans-serif" font-size="13" lengthAdjust="spacing" textLength="242.0425" x="530.5142" y="620.9185">{id, state: OPEN, severity: CRITICAL}</text></g><g class="message" data-participant-1="API" data-participant-2="Frontend"><polygon fill="#181818" points="250.9116,651.1172,240.9116,655.1172,250.9116,659.1172,246.9116,655.1172" style="stroke:#181818;stroke-width:1;"/><line style="stroke:#181818;stroke-width:1;stroke-dasharray:2,2;" x1="244.9116" x2="512.5142" y1="655.1172" y2="655.1172"/><text fill="#000000" font-family="sans-serif" font-size="13" lengthAdjust="spacing" textLength="80.6787" x="256.9116" y="650.0513">201 Created</text></g><g class="message" data-participant-1="Frontend" data-participant-2="Operator"><polygon fill="#181818" points="50.3325,680.25,40.3325,684.25,50.3325,688.25,46.3325,684.25" style="stroke:#181818;stroke-width:1;"/><line style="stroke:#181818;stroke-width:1;stroke-dasharray:2,2;" x1="44.3325" x2="238.9116" y1="684.25" y2="684.25"/><text fill="#000000" font-family="sans-serif" font-size="13" lengthAdjust="spacing" textLength="124.2363" x="56.3325" y="679.1841">&#10003; Incidente creado</text></g><path d="M1271,697.25 L1271,737.25 L1461,737.25 L1461,707.25 L1451,697.25 L1271,697.25" fill="#FEFFDD" style="stroke:#181818;stroke-width:0.5;"/><path d="M1451,697.25 L1451,707.25 L1461,707.25 L1451,697.25" fill="#FEFFDD" style="stroke:#181818;stroke-width:0.5;"/><text fill="#000000" font-family="sans-serif" font-size="13" lengthAdjust="spacing" textLength="132.2471" x="1277" y="714.3169">Receives immediate</text><text fill="#000000" font-family="sans-serif" font-size="13" lengthAdjust="spacing" textLength="169.3047" x="1277" y="729.4497">notification (push/banner)</text><path d="M1360,747.5156 L1360,787.5156 L1550,787.5156 L1550,757.5156 L1540,747.5156 L1360,747.5156" fill="#FEFFDD" style="stroke:#181818;stroke-width:0.5;"/><path d="M1540,747.5156 L1540,757.5156 L1550,757.5156 L1540,747.5156" fill="#FEFFDD" style="stroke:#181818;stroke-width:0.5;"/><text fill="#000000" font-family="sans-serif" font-size="13" lengthAdjust="spacing" textLength="132.2471" x="1366" y="764.5825">Receives immediate</text><text fill="#000000" font-family="sans-serif" font-size="13" lengthAdjust="spacing" textLength="169.3047" x="1366" y="779.7153">notification (push/banner)</text><g class="message" data-participant-1="Commander" data-participant-2="Frontend"><polygon fill="#181818" points="250.9116,809.9141,240.9116,813.9141,250.9116,817.9141,246.9116,813.9141" style="stroke:#181818;stroke-width:1;"/><line style="stroke:#181818;stroke-width:1;" x1="244.9116" x2="1365.1533" y1="813.9141" y2="813.9141"/><text fill="#000000" font-family="sans-serif" font-size="13" lengthAdjust="spacing" textLength="134.9067" x="256.9116" y="808.8481">View incident details</text></g><g class="message" data-participant-1="Frontend" data-participant-2="API"><polygon fill="#181818" points="501.5142,839.0469,511.5142,843.0469,501.5142,847.0469,505.5142,843.0469" style="stroke:#181818;stroke-width:1;"/><line style="stroke:#181818;stroke-width:1;" x1="239.9116" x2="507.5142" y1="843.0469" y2="843.0469"/><text fill="#000000" font-family="sans-serif" font-size="13" lengthAdjust="spacing" textLength="126.4961" x="246.9116" y="837.981">GET /incidents/{id}</text></g><g class="message" data-participant-1="API" data-participant-2="Database"><polygon fill="#181818" points="1163.2627,868.1797,1173.2627,872.1797,1163.2627,876.1797,1167.2627,872.1797" style="stroke:#181818;stroke-width:1;"/><line style="stroke:#181818;stroke-width:1;" x1="513.5142" x2="1169.2627" y1="872.1797" y2="872.1797"/><text fill="#000000" font-family="sans-serif" font-size="13" lengthAdjust="spacing" textLength="95.3989" x="520.5142" y="867.1138">fetch(incident)</text></g><g class="message" data-participant-1="Database" data-participant-2="API"><polygon fill="#181818" points="524.5142,897.3125,514.5142,901.3125,524.5142,905.3125,520.5142,901.3125" style="stroke:#181818;stroke-width:1;"/><line style="stroke:#181818;stroke-width:1;stroke-dasharray:2,2;" x1="518.5142" x2="1174.2627" y1="901.3125" y2="901.3125"/><text fill="#000000" font-family="sans-serif" font-size="13" lengthAdjust="spacing" textLength="87.9785" x="530.5142" y="896.2466">incident_data</text></g><g class="message" data-participant-1="API" data-participant-2="Frontend"><polygon fill="#181818" points="250.9116,926.4453,240.9116,930.4453,250.9116,934.4453,246.9116,930.4453" style="stroke:#181818;stroke-width:1;"/><line style="stroke:#181818;stroke-width:1;stroke-dasharray:2,2;" x1="244.9116" x2="512.5142" y1="930.4453" y2="930.4453"/><text fill="#000000" font-family="sans-serif" font-size="13" lengthAdjust="spacing" textLength="102.0068" x="256.9116" y="925.3794">incident_details</text></g><g class="message" data-participant-1="Frontend" data-participant-2="Commander"><polygon fill="#181818" points="1354.1533,955.5781,1364.1533,959.5781,1354.1533,963.5781,1358.1533,959.5781" style="stroke:#181818;stroke-width:1;"/><line style="stroke:#181818;stroke-width:1;stroke-dasharray:2,2;" x1="239.9116" x2="1360.1533" y1="959.5781" y2="959.5781"/><text fill="#000000" font-family="sans-serif" font-size="13" lengthAdjust="spacing" textLength="104.2476" x="246.9116" y="954.5122">Display incident</text></g><g class="message" data-participant-1="Commander" data-participant-2="Frontend"><polygon fill="#181818" points="250.9116,999.8438,240.9116,1003.8438,250.9116,1007.8438,246.9116,1003.8438" style="stroke:#181818;stroke-width:1;"/><line style="stroke:#181818;stroke-width:1;" x1="244.9116" x2="1365.1533" y1="1003.8438" y2="1003.8438"/><text fill="#000000" font-family="sans-serif" font-size="13" lengthAdjust="spacing" textLength="130.0127" x="256.9116" y="983.645">Assign to responder</text><text fill="#000000" font-family="sans-serif" font-size="13" lengthAdjust="spacing" textLength="138.3408" x="256.9116" y="998.7778">Change to ASSIGNED</text></g><g class="message" data-participant-1="Frontend" data-participant-2="API"><polygon fill="#181818" points="501.5142,1044.1094,511.5142,1048.1094,501.5142,1052.1094,505.5142,1048.1094" style="stroke:#181818;stroke-width:1;"/><line style="stroke:#181818;stroke-width:1;" x1="239.9116" x2="507.5142" y1="1048.1094" y2="1048.1094"/><text fill="#000000" font-family="sans-serif" font-size="13" lengthAdjust="spacing" textLength="181.105" x="246.9116" y="1027.9106">PATCH /incidents/{id}/state</text><text fill="#000000" font-family="sans-serif" font-size="13" lengthAdjust="spacing" textLength="226.897" x="246.9116" y="1043.0435">{state: ASSIGNED, assignee_id: X}</text></g><g class="message" data-participant-1="API" data-participant-2="App"><polygon fill="#181818" points="883.9092,1073.2422,893.9092,1077.2422,883.9092,1081.2422,887.9092,1077.2422" style="stroke:#181818;stroke-width:1;"/><line style="stroke:#181818;stroke-width:1;" x1="513.5142" x2="889.9092" y1="1077.2422" y2="1077.2422"/><text fill="#000000" font-family="sans-serif" font-size="13" lengthAdjust="spacing" textLength="358.395" x="520.5142" y="1072.1763">TransitionState(incident, ASSIGNED, commander_user)</text></g><g class="message" data-participant-1="App" data-participant-2="App"><line style="stroke:#181818;stroke-width:1;" x1="895.9092" x2="937.9092" y1="1121.5078" y2="1121.5078"/><line style="stroke:#181818;stroke-width:1;" x1="937.9092" x2="937.9092" y1="1121.5078" y2="1134.5078"/><line style="stroke:#181818;stroke-width:1;" x1="896.9092" x2="937.9092" y1="1134.5078" y2="1134.5078"/><polygon fill="#181818" points="906.9092,1130.5078,896.9092,1134.5078,906.9092,1138.5078,902.9092,1134.5078" style="stroke:#181818;stroke-width:1;"/><text fill="#000000" font-family="sans-serif" font-size="13" lengthAdjust="spacing" textLength="130.7744" x="902.9092" y="1101.3091">validate_transition()</text><text fill="#000000" font-family="sans-serif" font-size="13" lengthAdjust="spacing" textLength="237.2944" x="902.9092" y="1116.4419">(checks: not CLOSED, has_assignee)</text></g><g class="message" data-participant-1="App" data-participant-2="Database"><polygon fill="#181818" points="1163.2627,1159.6406,1173.2627,1163.6406,1163.2627,1167.6406,1167.2627,1163.6406" style="stroke:#181818;stroke-width:1;"/><line style="stroke:#181818;stroke-width:1;" x1="895.9092" x2="1169.2627" y1="1163.6406" y2="1163.6406"/><text fill="#000000" font-family="sans-serif" font-size="13" lengthAdjust="spacing" textLength="231.6196" x="902.9092" y="1158.5747">update(incident.state = ASSIGNED)</text></g><g class="message" data-participant-1="App" data-participant-2="Database"><polygon fill="#181818" points="1163.2627,1188.7734,1173.2627,1192.7734,1163.2627,1196.7734,1167.2627,1192.7734" style="stroke:#181818;stroke-width:1;"/><line style="stroke:#181818;stroke-width:1;" x1="895.9092" x2="1169.2627" y1="1192.7734" y2="1192.7734"/><text fill="#000000" font-family="sans-serif" font-size="13" lengthAdjust="spacing" textLength="228.0776" x="902.9092" y="1187.7075">create_audit_log(who, what, when)</text></g><g class="message" data-participant-1="App" data-participant-2="EventBus"><polygon fill="#181818" points="1255.8271,1217.9063,1265.8271,1221.9063,1255.8271,1225.9063,1259.8271,1221.9063" style="stroke:#181818;stroke-width:1;"/><line style="stroke:#181818;stroke-width:1;" x1="895.9092" x2="1261.8271" y1="1221.9063" y2="1221.9063"/><text fill="#000000" font-family="sans-serif" font-size="13" lengthAdjust="spacing" textLength="193.2354" x="902.9092" y="1216.8403">publish(INCIDENT_ASSIGNED)</text></g><g class="message" data-participant-1="EventBus" data-participant-2="Responder"><polygon fill="#181818" points="1903.2261,1247.0391,1913.2261,1251.0391,1903.2261,1255.0391,1907.2261,1251.0391" style="stroke:#181818;stroke-width:1;"/><line style="stroke:#181818;stroke-width:1;stroke-dasharray:2,2;" x1="1267.8271" x2="1909.2261" y1="1251.0391" y2="1251.0391"/><text fill="#000000" font-family="sans-serif" font-size="13" lengthAdjust="spacing" textLength="183.4282" x="1274.8271" y="1245.9731">notify(assigned_to_incident)</text></g><g class="message" data-participant-1="API" data-participant-2="Frontend"><polygon fill="#181818" points="250.9116,1276.1719,240.9116,1280.1719,250.9116,1284.1719,246.9116,1280.1719" style="stroke:#181818;stroke-width:1;"/><line style="stroke:#181818;stroke-width:1;stroke-dasharray:2,2;" x1="244.9116" x2="512.5142" y1="1280.1719" y2="1280.1719"/><text fill="#000000" font-family="sans-serif" font-size="13" lengthAdjust="spacing" textLength="47.7026" x="256.9116" y="1275.106">200 OK</text></g><g class="message" data-participant-1="Frontend" data-participant-2="Commander"><polygon fill="#181818" points="1354.1533,1305.3047,1364.1533,1309.3047,1354.1533,1313.3047,1358.1533,1309.3047" style="stroke:#181818;stroke-width:1;"/><line style="stroke:#181818;stroke-width:1;stroke-dasharray:2,2;" x1="239.9116" x2="1360.1533" y1="1309.3047" y2="1309.3047"/><text fill="#000000" font-family="sans-serif" font-size="13" lengthAdjust="spacing" textLength="138.0488" x="246.9116" y="1304.2388">&#10003; Estado actualizado</text></g><g class="message" data-participant-1="Responder" data-participant-2="Frontend"><polygon fill="#181818" points="250.9116,1334.4375,240.9116,1338.4375,250.9116,1342.4375,246.9116,1338.4375" style="stroke:#181818;stroke-width:1;"/><line style="stroke:#181818;stroke-width:1;" x1="244.9116" x2="1914.2261" y1="1338.4375" y2="1338.4375"/><text fill="#000000" font-family="sans-serif" font-size="13" lengthAdjust="spacing" textLength="87.4517" x="256.9116" y="1333.3716">Start working</text></g><g class="message" data-participant-1="Frontend" data-participant-2="API"><polygon fill="#181818" points="501.5142,1378.7031,511.5142,1382.7031,501.5142,1386.7031,505.5142,1382.7031" style="stroke:#181818;stroke-width:1;"/><line style="stroke:#181818;stroke-width:1;" x1="239.9116" x2="507.5142" y1="1382.7031" y2="1382.7031"/><text fill="#000000" font-family="sans-serif" font-size="13" lengthAdjust="spacing" textLength="181.105" x="246.9116" y="1362.5044">PATCH /incidents/{id}/state</text><text fill="#000000" font-family="sans-serif" font-size="13" lengthAdjust="spacing" textLength="148.9731" x="246.9116" y="1377.6372">{state: IN_PROGRESS}</text></g><g class="message" data-participant-1="API" data-participant-2="App"><polygon fill="#181818" points="883.9092,1407.8359,893.9092,1411.8359,883.9092,1415.8359,887.9092,1411.8359" style="stroke:#181818;stroke-width:1;"/><line style="stroke:#181818;stroke-width:1;" x1="513.5142" x2="889.9092" y1="1411.8359" y2="1411.8359"/><text fill="#000000" font-family="sans-serif" font-size="13" lengthAdjust="spacing" textLength="309.5942" x="520.5142" y="1406.77">TransitionState(IN_PROGRESS, responder_user)</text></g><g class="message" data-participant-1="App" data-participant-2="App"><line style="stroke:#181818;stroke-width:1;" x1="895.9092" x2="937.9092" y1="1440.9688" y2="1440.9688"/><line style="stroke:#181818;stroke-width:1;" x1="937.9092" x2="937.9092" y1="1440.9688" y2="1453.9688"/><line style="stroke:#181818;stroke-width:1;" x1="896.9092" x2="937.9092" y1="1453.9688" y2="1453.9688"/><polygon fill="#181818" points="906.9092,1449.9688,896.9092,1453.9688,906.9092,1457.9688,902.9092,1453.9688" style="stroke:#181818;stroke-width:1;"/><text fill="#000000" font-family="sans-serif" font-size="13" lengthAdjust="spacing" textLength="130.7744" x="902.9092" y="1435.9028">validate_transition()</text></g><g class="message" data-participant-1="App" data-participant-2="Database"><polygon fill="#181818" points="1163.2627,1479.1016,1173.2627,1483.1016,1163.2627,1487.1016,1167.2627,1483.1016" style="stroke:#181818;stroke-width:1;"/><line style="stroke:#181818;stroke-width:1;" x1="895.9092" x2="1169.2627" y1="1483.1016" y2="1483.1016"/><text fill="#000000" font-family="sans-serif" font-size="13" lengthAdjust="spacing" textLength="255.3535" x="902.9092" y="1478.0356">update(incident.state = IN_PROGRESS)</text></g><g class="message" data-participant-1="App" data-participant-2="EventBus"><polygon fill="#181818" points="1255.8271,1508.2344,1265.8271,1512.2344,1255.8271,1516.2344,1259.8271,1512.2344" style="stroke:#181818;stroke-width:1;"/><line style="stroke:#181818;stroke-width:1;" x1="895.9092" x2="1261.8271" y1="1512.2344" y2="1512.2344"/><text fill="#000000" font-family="sans-serif" font-size="13" lengthAdjust="spacing" textLength="216.9692" x="902.9092" y="1507.1685">publish(INCIDENT_IN_PROGRESS)</text></g><g class="message" data-participant-1="Responder" data-participant-2="Frontend"><polygon fill="#181818" points="250.9116,1537.3672,240.9116,1541.3672,250.9116,1545.3672,246.9116,1541.3672" style="stroke:#181818;stroke-width:1;"/><line style="stroke:#181818;stroke-width:1;" x1="244.9116" x2="1914.2261" y1="1541.3672" y2="1541.3672"/><text fill="#000000" font-family="sans-serif" font-size="13" lengthAdjust="spacing" textLength="191.9595" x="256.9116" y="1536.3013">Add comment with resolution</text></g><g class="message" data-participant-1="Frontend" data-participant-2="API"><polygon fill="#181818" points="501.5142,1581.6328,511.5142,1585.6328,501.5142,1589.6328,505.5142,1585.6328" style="stroke:#181818;stroke-width:1;"/><line style="stroke:#181818;stroke-width:1;" x1="239.9116" x2="507.5142" y1="1585.6328" y2="1585.6328"/><text fill="#000000" font-family="sans-serif" font-size="13" lengthAdjust="spacing" textLength="207.4478" x="246.9116" y="1565.4341">POST /incidents/{id}/comments</text><text fill="#000000" font-family="sans-serif" font-size="13" lengthAdjust="spacing" textLength="249.6025" x="246.9116" y="1580.5669">{text: "Fixed by restarting service X"}</text></g><g class="message" data-participant-1="API" data-participant-2="App"><polygon fill="#181818" points="883.9092,1610.7656,893.9092,1614.7656,883.9092,1618.7656,887.9092,1614.7656" style="stroke:#181818;stroke-width:1;"/><line style="stroke:#181818;stroke-width:1;" x1="513.5142" x2="889.9092" y1="1614.7656" y2="1614.7656"/><text fill="#000000" font-family="sans-serif" font-size="13" lengthAdjust="spacing" textLength="308.8262" x="520.5142" y="1609.6997">AddComment(incident_id, comment_text, user)</text></g><g class="message" data-participant-1="App" data-participant-2="Database"><polygon fill="#181818" points="1163.2627,1639.8984,1173.2627,1643.8984,1163.2627,1647.8984,1167.2627,1643.8984" style="stroke:#181818;stroke-width:1;"/><line style="stroke:#181818;stroke-width:1;" x1="895.9092" x2="1169.2627" y1="1643.8984" y2="1643.8984"/><text fill="#000000" font-family="sans-serif" font-size="13" lengthAdjust="spacing" textLength="119.958" x="902.9092" y="1638.8325">create_comment()</text></g><g class="message" data-participant-1="App" data-participant-2="Database"><polygon fill="#181818" points="1163.2627,1669.0313,1173.2627,1673.0313,1163.2627,1677.0313,1167.2627,1673.0313" style="stroke:#181818;stroke-width:1;"/><line style="stroke:#181818;stroke-width:1;" x1="895.9092" x2="1169.2627" y1="1673.0313" y2="1673.0313"/><text fill="#000000" font-family="sans-serif" font-size="13" lengthAdjust="spacing" textLength="117.6792" x="902.9092" y="1667.9653">create_audit_log()</text></g><g class="message" data-participant-1="App" data-participant-2="EventBus"><polygon fill="#181818" points="1255.8271,1698.1641,1265.8271,1702.1641,1255.8271,1706.1641,1259.8271,1702.1641" style="stroke:#181818;stroke-width:1;"/><line style="stroke:#181818;stroke-width:1;" x1="895.9092" x2="1261.8271" y1="1702.1641" y2="1702.1641"/><text fill="#000000" font-family="sans-serif" font-size="13" lengthAdjust="spacing" textLength="178.3818" x="902.9092" y="1697.0981">publish(COMMENT_ADDED)</text></g><g class="message" data-participant-1="Responder" data-participant-2="Frontend"><polygon fill="#181818" points="250.9116,1727.2969,240.9116,1731.2969,250.9116,1735.2969,246.9116,1731.2969" style="stroke:#181818;stroke-width:1;"/><line style="stroke:#181818;stroke-width:1;" x1="244.9116" x2="1914.2261" y1="1731.2969" y2="1731.2969"/><text fill="#000000" font-family="sans-serif" font-size="13" lengthAdjust="spacing" textLength="107.3896" x="256.9116" y="1726.231">Resolve incident</text></g><g class="message" data-participant-1="Frontend" data-participant-2="API"><polygon fill="#181818" points="501.5142,1771.5625,511.5142,1775.5625,501.5142,1779.5625,505.5142,1775.5625" style="stroke:#181818;stroke-width:1;"/><line style="stroke:#181818;stroke-width:1;" x1="239.9116" x2="507.5142" y1="1775.5625" y2="1775.5625"/><text fill="#000000" font-family="sans-serif" font-size="13" lengthAdjust="spacing" textLength="181.105" x="246.9116" y="1755.3638">PATCH /incidents/{id}/state</text><text fill="#000000" font-family="sans-serif" font-size="13" lengthAdjust="spacing" textLength="230.5532" x="246.9116" y="1770.4966">{state: RESOLVED, summary: "..."}</text></g><g class="message" data-participant-1="API" data-participant-2="App"><polygon fill="#181818" points="883.9092,1800.6953,893.9092,1804.6953,883.9092,1808.6953,887.9092,1804.6953" style="stroke:#181818;stroke-width:1;"/><line style="stroke:#181818;stroke-width:1;" x1="513.5142" x2="889.9092" y1="1804.6953" y2="1804.6953"/><text fill="#000000" font-family="sans-serif" font-size="13" lengthAdjust="spacing" textLength="253.8428" x="520.5142" y="1799.6294">TransitionState(RESOLVED, responder)</text></g><g class="message" data-participant-1="App" data-participant-2="Database"><polygon fill="#181818" points="1163.2627,1829.8281,1173.2627,1833.8281,1163.2627,1837.8281,1167.2627,1833.8281" style="stroke:#181818;stroke-width:1;"/><line style="stroke:#181818;stroke-width:1;" x1="895.9092" x2="1169.2627" y1="1833.8281" y2="1833.8281"/><text fill="#000000" font-family="sans-serif" font-size="13" lengthAdjust="spacing" textLength="234.457" x="902.9092" y="1828.7622">update(incident.state = RESOLVED)</text></g><g class="message" data-participant-1="App" data-participant-2="EventBus"><polygon fill="#181818" points="1255.8271,1858.9609,1265.8271,1862.9609,1255.8271,1866.9609,1259.8271,1862.9609" style="stroke:#181818;stroke-width:1;"/><line style="stroke:#181818;stroke-width:1;" x1="895.9092" x2="1261.8271" y1="1862.9609" y2="1862.9609"/><text fill="#000000" font-family="sans-serif" font-size="13" lengthAdjust="spacing" textLength="196.0728" x="902.9092" y="1857.895">publish(INCIDENT_RESOLVED)</text></g><g class="message" data-participant-1="EventBus" data-participant-2="ManagerNotifications"><polygon fill="#181818" points="1767.1235,1888.0938,1777.1235,1892.0938,1767.1235,1896.0938,1771.1235,1892.0938" style="stroke:#181818;stroke-width:1;"/><line style="stroke:#181818;stroke-width:1;stroke-dasharray:2,2;" x1="1267.8271" x2="1773.1235" y1="1892.0938" y2="1892.0938"/><text fill="#000000" font-family="sans-serif" font-size="13" lengthAdjust="spacing" textLength="161.6367" x="1274.8271" y="1887.0278">notify(incident_resolved)</text></g><g class="message" data-participant-1="Commander" data-participant-2="Frontend"><polygon fill="#181818" points="250.9116,1932.3594,240.9116,1936.3594,250.9116,1940.3594,246.9116,1936.3594" style="stroke:#181818;stroke-width:1;"/><line style="stroke:#181818;stroke-width:1;" x1="244.9116" x2="1365.1533" y1="1936.3594" y2="1936.3594"/><text fill="#000000" font-family="sans-serif" font-size="13" lengthAdjust="spacing" textLength="91.7427" x="256.9116" y="1916.1606">Close incident</text><text fill="#000000" font-family="sans-serif" font-size="13" lengthAdjust="spacing" textLength="243.6484" x="256.9116" y="1931.2935">(only Commander/Admin can do this)</text></g><g class="message" data-participant-1="Frontend" data-participant-2="API"><polygon fill="#181818" points="501.5142,1976.625,511.5142,1980.625,501.5142,1984.625,505.5142,1980.625" style="stroke:#181818;stroke-width:1;"/><line style="stroke:#181818;stroke-width:1;" x1="239.9116" x2="507.5142" y1="1980.625" y2="1980.625"/><text fill="#000000" font-family="sans-serif" font-size="13" lengthAdjust="spacing" textLength="181.105" x="246.9116" y="1960.4263">PATCH /incidents/{id}/state</text><text fill="#000000" font-family="sans-serif" font-size="13" lengthAdjust="spacing" textLength="111.0142" x="246.9116" y="1975.5591">{state: CLOSED}</text></g><g class="message" data-participant-1="API" data-participant-2="App"><polygon fill="#181818" points="883.9092,2005.7578,893.9092,2009.7578,883.9092,2013.7578,887.9092,2009.7578" style="stroke:#181818;stroke-width:1;"/><line style="stroke:#181818;stroke-width:1;" x1="513.5142" x2="889.9092" y1="2009.7578" y2="2009.7578"/><text fill="#000000" font-family="sans-serif" font-size="13" lengthAdjust="spacing" textLength="248.8535" x="520.5142" y="2004.6919">TransitionState(CLOSED, commander)</text></g><g class="message" data-participant-1="App" data-participant-2="App"><line style="stroke:#181818;stroke-width:1;" x1="895.9092" x2="937.9092" y1="2054.0234" y2="2054.0234"/><line style="stroke:#181818;stroke-width:1;" x1="937.9092" x2="937.9092" y1="2054.0234" y2="2067.0234"/><line style="stroke:#181818;stroke-width:1;" x1="896.9092" x2="937.9092" y1="2067.0234" y2="2067.0234"/><polygon fill="#181818" points="906.9092,2063.0234,896.9092,2067.0234,906.9092,2071.0234,902.9092,2067.0234" style="stroke:#181818;stroke-width:1;"/><text fill="#000000" font-family="sans-serif" font-size="13" lengthAdjust="spacing" textLength="130.7744" x="902.9092" y="2033.8247">validate_transition()</text><text fill="#000000" font-family="sans-serif" font-size="13" lengthAdjust="spacing" textLength="207.0542" x="902.9092" y="2048.9575">if CRITICAL: require summary &#10003;</text></g><g class="message" data-participant-1="App" data-participant-2="Database"><polygon fill="#181818" points="1163.2627,2092.1563,1173.2627,2096.1563,1163.2627,2100.1563,1167.2627,2096.1563" style="stroke:#181818;stroke-width:1;"/><line style="stroke:#181818;stroke-width:1;" x1="895.9092" x2="1169.2627" y1="2096.1563" y2="2096.1563"/><text fill="#000000" font-family="sans-serif" font-size="13" lengthAdjust="spacing" textLength="217.3945" x="902.9092" y="2091.0903">update(incident.state = CLOSED)</text></g><g class="message" data-participant-1="App" data-participant-2="Database"><polygon fill="#181818" points="1163.2627,2121.2891,1173.2627,2125.2891,1163.2627,2129.2891,1167.2627,2125.2891" style="stroke:#181818;stroke-width:1;"/><line style="stroke:#181818;stroke-width:1;" x1="895.9092" x2="1169.2627" y1="2125.2891" y2="2125.2891"/><text fill="#000000" font-family="sans-serif" font-size="13" lengthAdjust="spacing" textLength="117.6792" x="902.9092" y="2120.2231">create_audit_log()</text></g><g class="message" data-participant-1="App" data-participant-2="EventBus"><polygon fill="#181818" points="1255.8271,2150.4219,1265.8271,2154.4219,1255.8271,2158.4219,1259.8271,2154.4219" style="stroke:#181818;stroke-width:1;"/><line style="stroke:#181818;stroke-width:1;" x1="895.9092" x2="1261.8271" y1="2154.4219" y2="2154.4219"/><text fill="#000000" font-family="sans-serif" font-size="13" lengthAdjust="spacing" textLength="179.0103" x="902.9092" y="2149.356">publish(INCIDENT_CLOSED)</text></g><g class="message" data-participant-1="EventBus" data-participant-2="ManagerNotifications"><polygon fill="#181818" points="1767.1235,2179.5547,1777.1235,2183.5547,1767.1235,2187.5547,1771.1235,2183.5547" style="stroke:#181818;stroke-width:1;"/><line style="stroke:#181818;stroke-width:1;stroke-dasharray:2,2;" x1="1267.8271" x2="1773.1235" y1="2183.5547" y2="2183.5547"/><text fill="#000000" font-family="sans-serif" font-size="13" lengthAdjust="spacing" textLength="147.748" x="1274.8271" y="2178.4888">notify(incident_closed)</text></g><g class="message" data-participant-1="API" data-participant-2="Frontend"><polygon fill="#181818" points="250.9116,2208.6875,240.9116,2212.6875,250.9116,2216.6875,246.9116,2212.6875" style="stroke:#181818;stroke-width:1;"/><line style="stroke:#181818;stroke-width:1;stroke-dasharray:2,2;" x1="244.9116" x2="512.5142" y1="2212.6875" y2="2212.6875"/><text fill="#000000" font-family="sans-serif" font-size="13" lengthAdjust="spacing" textLength="47.7026" x="256.9116" y="2207.6216">200 OK</text></g><g class="message" data-participant-1="Frontend" data-participant-2="Commander"><polygon fill="#181818" points="1354.1533,2252.9531,1364.1533,2256.9531,1354.1533,2260.9531,1358.1533,2256.9531" style="stroke:#181818;stroke-width:1;"/><line style="stroke:#181818;stroke-width:1;stroke-dasharray:2,2;" x1="239.9116" x2="1360.1533" y1="2256.9531" y2="2256.9531"/><text fill="#000000" font-family="sans-serif" font-size="13" lengthAdjust="spacing" textLength="113.312" x="246.9116" y="2236.7544">&#10003; Incident closed</text><text fill="#000000" font-family="sans-serif" font-size="13" lengthAdjust="spacing" textLength="155.6953" x="246.9116" y="2251.8872">Timeline &amp; audit logged</text></g><!--SRC=[fLVTRk965BxtKnnnqO94acqlBRKIDKwAca04QBMLaAo9vmH6QyPUpnYMhl8KlUtJxPFi6TipjZUGiEaDyi_v_Rxld35Qw0HX8cF1KUhh9Dt31IpmKu4oHX-2-MGv2KQtpWA279aMgOIV85GnIyeRpsEnJdEOPPWpkl0obciHYuoHntMUIesITnxsHlUJbUnVCwNfQj03fe0klhF9iaJ4POQLl6K7p2kxBElOZPbc3qnXrpdScNB_A5JfKzxHJLrea6wtJ7BCw_ix9jcQxZpR0LpyxWhtgwQnGKFKQ507sW0u18ugpaLcIXs2mXtcGXy6dWrXmb5xFjpF5akuilvg9RzOumRi9uzCIuyiixaj_dth6d7gUk2HYRFSiKJGKuoiJT-zjn3veDWENP21Pr_0XOtY4WXklIruFcJ5GoBKfZ-P1fDnE5r6mJmSBSFnmBCsJQ2l__rBkaXq0zkYRjK3E1bvEbjEhl-EWjdTtMWw3kS3Ckx4TjHDKoqUQtbG099iWI1R3yz8Gpb6DqUIr7fuFGKcf3impn1IwgwLQfhAYsUA8SPvAd_MLPG3YEqMkI3IaeDdPgI2tAhbY-2a9aslVPZTXzD6Mi_Kqj7hh-z-gNN3Mn8a4ollaXqtr0Wn6VFKyve-7Cm-p356iKFL5BkIRH2WdnLgS_N0fCHyq8fHe_Z34JoNl3k6xmNk7P8qSfg9H3sViPkmFM9N1AARg6OE7b77cvE3OC9q9kq8oCtxPuMqPUh3MAWiOGVdSBA_aL9YBK6daAFAKcEmai66oJMQXwF5Od8p3ST7jife6VpvVSzNfN3CXga4PDs7j0zD7gH5GKa_F7cTVRFCcLJ2iB8mVWwYOIj0REkF2cK8Exg5j0lK7z2YZ3SOVwIn8DuXk9qjJ9mDKv4jviYkAZBUhk2oR0H-SuKSSObBrKUiu497IRhkxpVf4FORfiqloi4PEwq9tzrgSqkANqzllwwTHpgD6YaTcyTtCFlhf43CB8RK74-1ZgE20Fodd4QNi2iJuYNNi4_pZqAktoY6oJIwdyzkvk5YyVGY_It3OIFBSta_dzDMddCuwfYV0ch4UIbLiotsGczC_MbIb8lxjPEvGgtsDkUqni_QXzwr-8mS7Wucbk61AA2bdEz4ZF2XryMIyWTLW7xhL1tQcY8JSWWTA9yfkRRjdwFr5u0pvscfxV6u5FO9nEO6e1qsg-fjwY9QPhVlpOIhWbIUqt7LkxoyxBqijSRBwUm716Izpr5FO-kTSUpNm-uep2kG-Ec3AaXIXUsln5GcXsRYhqPyAoJ4J0ADlDu8DNWZqDKYVMM3ssthjlPP2riykayCdmZvL8WSBPtbjztPp5Jv_wU0co_EEjfRc8iDB_o53VtYYdR_WQemAxaKMqo4HFelLFO0rCEQFhc-0G00]--></g></svg>