<svg xmlns="http://www.w3.org/2000/svg" xmlns:xlink="http://www.w3.org/1999/xlink" contentStyleType="text/css" data-diagram-type="STATE" height="1066px" preserveAspectRatio="none" style="width:698px;height:1066px;background:#FFFFFF;" version="1.1" viewBox="0 0 698 1066" width="698px" zoomAndPan="magnify"><title>IncidentFlow - State Machine Diagram</title><defs/><g><g class="title" data-source-line="1"><text fill="#000000" font-family="sans-serif" font-size="14" font-weight="bold" lengthAdjust="spacing" textLength="301.8135" x="191.1425" y="22.9951">IncidentFlow - State Machine Diagram</text></g><ellipse cx="201" cy="53.2969" fill="#222222" rx="10" ry="10" style="stroke:#222222;stroke-width:1;"/><g id="OPEN"><rect fill="#F1F1F1" height="50" rx="12.5" ry="12.5" style="stroke:#181818;stroke-width:0.5;" width="58.7803" x="171.61" y="124.2969"/><line style="stroke:#181818;stroke-width:0.5;" x1="171.61" x2="230.3903" y1="150.5938" y2="150.5938"/><text fill="#000000" font-family="sans-serif" font-size="14" lengthAdjust="spacing" textLength="38.7803" x="181.61" y="142.292">OPEN</text></g><g id="TRIAGED"><rect fill="#F1F1F1" height="50" rx="12.5" ry="12.5" style="stroke:#181818;stroke-width:0.5;" width="82.46" x="159.77" y="251.2969"/><line style="stroke:#181818;stroke-width:0.5;" x1="159.77" x2="242.23" y1="277.5938" y2="277.5938"/><text fill="#000000" font-family="sans-serif" font-size="14" lengthAdjust="spacing" textLength="62.46" x="169.77" y="269.292">TRIAGED</text></g><g id="CANCELLED"><rect fill="#F1F1F1" height="50" rx="12.5" ry="12.5" style="stroke:#181818;stroke-width:0.5;" width="103.6719" x="116.16" y="632.2969"/><line style="stroke:#181818;stroke-width:0.5;" x1="116.16" x2="219.8319" y1="658.5938" y2="658.5938"/><text fill="#000000" font-family="sans-serif" font-size="14" lengthAdjust="spacing" textLength="83.6719" x="126.16" y="650.292">CANCELLED</text></g><g id="ESCALATED"><rect fill="#F1F1F1" height="50" rx="12.5" ry="12.5" style="stroke:#181818;stroke-width:0.5;" width="102.6396" x="383.68" y="378.2969"/><line style="stroke:#181818;stroke-width:0.5;" x1="383.68" x2="486.3196" y1="404.5938" y2="404.5938"/><text fill="#000000" font-family="sans-serif" font-size="14" lengthAdjust="spacing" textLength="82.6396" x="393.68" y="396.292">ESCALATED</text></g><g id="ASSIGNED"><rect fill="#F1F1F1" height="50" rx="12.5" ry="12.5" style="stroke:#181818;stroke-width:0.5;" width="92.4268" x="206.79" y="505.2969"/><line style="stroke:#181818;stroke-width:0.5;" x1="206.79" x2="299.2168" y1="531.5938" y2="531.5938"/><text fill="#000000" font-family="sans-serif" font-size="14" lengthAdjust="spacing" textLength="72.4268" x="216.79" y="523.292">ASSIGNED</text></g><g id="IN_PROGRESS"><rect fill="#F1F1F1" height="50" rx="12.5" ry="12.5" style="stroke:#181818;stroke-width:0.5;" width="117.9863" x="410.01" y="632.2969"/><line style="stroke:#181818;stroke-width:0.5;" x1="410.01" x2="527.9963" y1="658.5938" y2="658.5938"/><text fill="#000000" font-family="sans-serif" font-size="14" lengthAdjust="spacing" textLength="97.9863" x="420.01" y="650.292">IN_PROGRESS</text></g><g id="RESOLVED"><rect fill="#F1F1F1" height="50" rx="12.5" ry="12.5" style="stroke:#181818;stroke-width:0.5;" width="95.4824" x="261.26" y="776.9969"/><line style="stroke:#181818;stroke-width:0.5;" x1="261.26" x2="356.7424" y1="803.2937" y2="803.2937"/><text fill="#000000" font-family="sans-serif" font-size="14" lengthAdjust="spacing" textLength="75.4824" x="271.26" y="794.992">RESOLVED</text></g><g id="CLOSED"><rect fill="#F1F1F1" height="50" rx="12.5" ry="12.5" style="stroke:#181818;stroke-width:0.5;" width="77.1074" x="252.45" y="924.3969"/><line style="stroke:#181818;stroke-width:0.5;" x1="252.45" x2="329.5574" y1="950.6937" y2="950.6937"/><text fill="#000000" font-family="sans-serif" font-size="14" lengthAdjust="spacing" textLength="57.1074" x="262.45" y="942.392">CLOSED</text></g><ellipse cx="215" cy="1049.0969" fill="none" rx="11" ry="11" style="stroke:#222222;stroke-width:1;"/><ellipse cx="215" cy="1049.0969" fill="#222222" rx="6" ry="6" style="stroke:#222222;stroke-width:1;"/><g class="entity" data-entity="GMN2" data-source-line="30" data-uid="ent0003" id="entity_GMN2"><path d="M264.94,129.1669 L264.94,145.2969 L230.72,149.2969 L264.94,153.2969 L264.94,169.4325 A0,0 0 0 0 264.94,169.4325 L495.0508,169.4325 A0,0 0 0 0 495.0508,169.4325 L495.0508,139.1669 L485.0508,129.1669 L264.94,129.1669 A0,0 0 0 0 264.94,129.1669" fill="#FEFFDD" style="stroke:#181818;stroke-width:0.5;"/><path d="M485.0508,129.1669 L485.0508,139.1669 L495.0508,139.1669 L485.0508,129.1669" fill="#FEFFDD" style="stroke:#181818;stroke-width:0.5;"/><text fill="#000000" font-family="sans-serif" font-size="13" lengthAdjust="spacing" textLength="209.1108" x="270.94" y="146.2338">Estado inicial cuando se reporta</text><text fill="#000000" font-family="sans-serif" font-size="13" lengthAdjust="spacing" textLength="80.8057" x="270.94" y="161.3666">un incidente</text></g><g class="entity" data-entity="GMN5" data-source-line="35" data-uid="ent0006" id="entity_GMN5"><path d="M391.24,774.2969 L391.24,797.9969 L357.22,801.9969 L391.24,805.9969 L391.24,829.6953 A0,0 0 0 0 391.24,829.6953 L648.7537,829.6953 A0,0 0 0 0 648.7537,829.6953 L648.7537,784.2969 L638.7537,774.2969 L391.24,774.2969 A0,0 0 0 0 391.24,774.2969" fill="#FEFFDD" style="stroke:#181818;stroke-width:0.5;"/><path d="M638.7537,774.2969 L638.7537,784.2969 L648.7537,784.2969 L638.7537,774.2969" fill="#FEFFDD" style="stroke:#181818;stroke-width:0.5;"/><text fill="#000000" font-family="sans-serif" font-size="13" lengthAdjust="spacing" textLength="236.5137" x="397.24" y="791.3638">Para CRITICAL: debe haber resumen</text><text fill="#000000" font-family="sans-serif" font-size="13" lengthAdjust="spacing" textLength="207.3018" x="397.24" y="806.4966">Requiere notificaci&#243;n inmediata</text><text fill="#000000" font-family="sans-serif" font-size="13" lengthAdjust="spacing" textLength="219.5083" x="397.24" y="821.6294">Debe tener responsable asignado</text></g><g class="entity" data-entity="GMN8" data-source-line="41" data-uid="ent0009" id="entity_GMN8"><path d="M364.18,921.6969 L364.18,945.3969 L329.8,949.3969 L364.18,953.3969 L364.18,977.0953 A0,0 0 0 0 364.18,977.0953 L599.8196,977.0953 A0,0 0 0 0 599.8196,977.0953 L599.8196,931.6969 L589.8196,921.6969 L364.18,921.6969 A0,0 0 0 0 364.18,921.6969" fill="#FEFFDD" style="stroke:#181818;stroke-width:0.5;"/><path d="M589.8196,921.6969 L589.8196,931.6969 L599.8196,931.6969 L589.8196,921.6969" fill="#FEFFDD" style="stroke:#181818;stroke-width:0.5;"/><text fill="#000000" font-family="sans-serif" font-size="13" lengthAdjust="spacing" textLength="214.6396" x="370.18" y="938.7638">Final - no vuelve a IN_PROGRESS</text><text fill="#000000" font-family="sans-serif" font-size="13" lengthAdjust="spacing" textLength="128.2671" x="370.18" y="953.8966">AuditLog registrado</text><text fill="#000000" font-family="sans-serif" font-size="13" lengthAdjust="spacing" textLength="136.7031" x="370.18" y="969.0294">Timeline completado</text></g><!--link *start* to OPEN--><g class="link" data-entity-1=".start." data-entity-2="OPEN" data-source-line="3" data-uid="lnk4" id="link_.start._OPEN"><path d="M201,63.6569 C201,77.5869 201,98.2569 201,117.9469" fill="none" id="*start*-to-OPEN" style="stroke:#181818;stroke-width:1;"/><polygon fill="#181818" points="201,123.9469,205,114.9469,201,118.9469,197,114.9469,201,123.9469" style="stroke:#181818;stroke-width:1;"/></g><!--link OPEN to TRIAGED--><g class="link" data-entity-1="OPEN" data-entity-2="TRIAGED" data-source-line="5" data-uid="lnk6" id="link_OPEN_TRIAGED"><path d="M201,174.6969 C201,196.7269 201,222.9569 201,244.9669" fill="none" id="OPEN-to-TRIAGED" style="stroke:#181818;stroke-width:1;"/><polygon fill="#181818" points="201,250.9669,205,241.9669,201,245.9669,197,241.9669,201,250.9669" style="stroke:#181818;stroke-width:1;"/><text fill="#000000" font-family="sans-serif" font-size="13" lengthAdjust="spacing" textLength="48.4136" x="202" y="217.3638">triage()</text></g><!--link OPEN to CANCELLED--><g class="link" data-entity-1="OPEN" data-entity-2="CANCELLED" data-source-line="6" data-uid="lnk8" id="link_OPEN_CANCELLED"><path d="M171.38,155.1869 C116.83,166.0569 6,197.6869 6,275.2969 C6,275.2969 6,275.2969 6,531.2969 C6,587.7869 62.8838,620.189 110.2438,638.249" fill="none" id="OPEN-to-CANCELLED" style="stroke:#181818;stroke-width:1;"/><polygon fill="#181818" points="115.85,640.3869,108.8659,633.4426,111.1782,638.6053,106.0155,640.9176,115.85,640.3869" style="stroke:#181818;stroke-width:1;"/><text fill="#000000" font-family="sans-serif" font-size="13" lengthAdjust="spacing" textLength="52.2539" x="7" y="407.8638">cancel()</text></g><!--link OPEN to ESCALATED--><g class="link" data-entity-1="OPEN" data-entity-2="ESCALATED" data-source-line="7" data-uid="lnk10" id="link_OPEN_ESCALATED"><path d="M230.89,171.7069 C272.89,202.9769 349.86,264.7069 400,331.2969 C410.75,345.5769 417.2462,358.1378 423.3662,372.4878" fill="none" id="OPEN-to-ESCALATED" style="stroke:#181818;stroke-width:1;"/><polygon fill="#181818" points="425.72,378.0069,425.8687,368.1591,423.7585,373.4077,418.51,371.2975,425.72,378.0069" style="stroke:#181818;stroke-width:1;"/><text fill="#000000" font-family="sans-serif" font-size="13" lengthAdjust="spacing" textLength="64.7017" x="375.24" y="280.8638">escalate()</text></g><!--link TRIAGED to ASSIGNED--><g class="link" data-entity-1="TRIAGED" data-entity-2="ASSIGNED" data-source-line="9" data-uid="lnk12" id="link_TRIAGED_ASSIGNED"><path d="M203.11,301.7269 C206.76,339.4669 215.49,413.9869 232,475.2969 C234.67,485.2069 236.2907,490.2344 239.9907,499.3844" fill="none" id="TRIAGED-to-ASSIGNED" style="stroke:#181818;stroke-width:1;"/><polygon fill="#181818" points="242.24,504.9469,242.5744,495.1037,240.3656,500.3115,235.1578,498.1027,242.24,504.9469" style="stroke:#181818;stroke-width:1;"/><text fill="#000000" font-family="sans-serif" font-size="13" lengthAdjust="spacing" textLength="130.9204" x="222.06" y="407.8638">assign(responsable)</text></g><!--link TRIAGED to CANCELLED--><g class="link" data-entity-1="TRIAGED" data-entity-2="CANCELLED" data-source-line="10" data-uid="lnk13" id="link_TRIAGED_CANCELLED"><path d="M194.75,301.6769 C186.23,336.2369 171.43,401.5869 166,458.2969 C160.03,520.5769 163.1542,588.3906 165.6942,625.8606" fill="none" id="TRIAGED-to-CANCELLED" style="stroke:#181818;stroke-width:1;"/><polygon fill="#181818" points="166.1,631.8469,169.4822,622.597,165.7618,626.8583,161.5005,623.138,166.1,631.8469" style="stroke:#181818;stroke-width:1;"/><text fill="#000000" font-family="sans-serif" font-size="13" lengthAdjust="spacing" textLength="52.2539" x="167" y="471.3638">cancel()</text></g><!--link TRIAGED to ESCALATED--><g class="link" data-entity-1="TRIAGED" data-entity-2="ESCALATED" data-source-line="11" data-uid="lnk14" id="link_TRIAGED_ESCALATED"><path d="M242.67,300.6169 C267.86,314.6169 300.66,332.6869 330,348.2969 C348.46,358.1269 363.54,365.9512 381.42,375.1112" fill="none" id="TRIAGED-to-ESCALATED" style="stroke:#181818;stroke-width:1;"/><polygon fill="#181818" points="386.76,377.8469,380.5738,370.1833,382.31,375.5671,376.9262,377.3033,386.76,377.8469" style="stroke:#181818;stroke-width:1;"/><text fill="#000000" font-family="sans-serif" font-size="13" lengthAdjust="spacing" textLength="64.7017" x="331" y="344.3638">escalate()</text></g><!--link ASSIGNED to IN_PROGRESS--><g class="link" data-entity-1="ASSIGNED" data-entity-2="IN_PROGRESS" data-source-line="13" data-uid="lnk16" id="link_ASSIGNED_IN_PROGRESS"><path d="M295.16,555.6969 C333.22,577.7269 383.727,606.9514 421.757,628.9614" fill="none" id="ASSIGNED-to-IN_PROGRESS" style="stroke:#181818;stroke-width:1;"/><polygon fill="#181818" points="426.95,631.9669,421.1642,623.9967,422.6225,629.4623,417.1569,630.9207,426.95,631.9669" style="stroke:#181818;stroke-width:1;"/><text fill="#000000" font-family="sans-serif" font-size="13" lengthAdjust="spacing" textLength="78.3809" x="374.93" y="598.3638">start_work()</text></g><!--link ASSIGNED to CANCELLED--><g class="link" data-entity-1="ASSIGNED" data-entity-2="CANCELLED" data-source-line="14" data-uid="lnk17" id="link_ASSIGNED_CANCELLED"><path d="M236.41,555.6969 C221.43,577.7269 202.8828,604.9946 187.9228,627.0046" fill="none" id="ASSIGNED-to-CANCELLED" style="stroke:#181818;stroke-width:1;"/><polygon fill="#181818" points="184.55,631.9669,192.9174,626.772,187.3607,627.8316,186.301,622.2749,184.55,631.9669" style="stroke:#181818;stroke-width:1;"/><text fill="#000000" font-family="sans-serif" font-size="13" lengthAdjust="spacing" textLength="52.2539" x="216.59" y="598.3638">cancel()</text></g><!--link ASSIGNED to ESCALATED--><g class="link" data-entity-1="ASSIGNED" data-entity-2="ESCALATED" data-source-line="15" data-uid="lnk18" id="link_ASSIGNED_ESCALATED"><path d="M299.51,523.6969 C333.53,517.3169 378.68,503.8069 408,475.2969 C420.76,462.8869 426.2088,449.6681 429.7888,434.4181" fill="none" id="ASSIGNED-to-ESCALATED" style="stroke:#181818;stroke-width:1;"/><polygon fill="#181818" points="431.16,428.5769,425.209,436.4245,430.0173,433.4445,432.9973,438.2528,431.16,428.5769" style="stroke:#181818;stroke-width:1;"/><text fill="#000000" font-family="sans-serif" font-size="13" lengthAdjust="spacing" textLength="64.7017" x="421.1" y="471.3638">escalate()</text></g><!--link ESCALATED to ASSIGNED--><g class="link" data-entity-1="ESCALATED" data-entity-2="ASSIGNED" data-source-line="23" data-uid="lnk25" id="link_ESCALATED_ASSIGNED"><path d="M383.42,417.4069 C328.94,431.4969 250.28,452.6269 246,458.2969 C236.08,471.4469 236.6349,484.3502 241.1049,499.2402" fill="none" id="ESCALATED-to-ASSIGNED" style="stroke:#181818;stroke-width:1;"/><polygon fill="#181818" points="242.83,504.9869,244.0734,495.2168,241.3924,500.198,236.4112,497.517,242.83,504.9869" style="stroke:#181818;stroke-width:1;"/><text fill="#000000" font-family="sans-serif" font-size="13" lengthAdjust="spacing" textLength="152.312" x="247" y="471.3638">reasign_and_continue()</text></g><!--link IN_PROGRESS to RESOLVED--><g class="link" data-entity-1="IN_PROGRESS" data-entity-2="RESOLVED" data-source-line="17" data-uid="lnk20" id="link_IN_PROGRESS_RESOLVED"><path d="M409.57,661.2769 C373.28,666.5369 329.47,679.7969 306,712.2969 C292.65,730.7869 294.2395,751.7375 299.2195,771.0175" fill="none" id="IN_PROGRESS-to-RESOLVED" style="stroke:#181818;stroke-width:1;"/><polygon fill="#181818" points="300.72,776.8269,302.3421,767.1125,299.4695,771.9858,294.5963,769.1132,300.72,776.8269" style="stroke:#181818;stroke-width:1;"/><text fill="#000000" font-family="sans-serif" font-size="13" lengthAdjust="spacing" textLength="118.8599" x="307" y="732.8638">resolve(summary)</text></g><!--link RESOLVED to IN_PROGRESS--><g class="link" data-entity-1="RESOLVED" data-entity-2="IN_PROGRESS" data-source-line="21" data-uid="lnk24" id="link_RESOLVED_IN_PROGRESS"><path d="M357.17,780.3269 C388.39,766.6069 424.27,750.0969 430,744.2969 C446.93,727.1569 455.5347,707.0874 461.2747,688.2074" fill="none" id="RESOLVED-to-IN_PROGRESS" style="stroke:#181818;stroke-width:1;"/><polygon fill="#181818" points="463.02,682.4669,456.575,689.9142,461.5656,687.2507,464.2291,692.2412,463.02,682.4669" style="stroke:#181818;stroke-width:1;"/><text fill="#000000" font-family="sans-serif" font-size="13" lengthAdjust="spacing" textLength="55.9292" x="492.2584" y="725.3638">reopen()</text><text fill="#000000" font-family="sans-serif" font-size="13" lengthAdjust="spacing" textLength="135.5859" x="452.43" y="740.4966">(if not from CLOSED)</text></g><!--link IN_PROGRESS to ESCALATED--><g class="link" data-entity-1="IN_PROGRESS" data-entity-2="ESCALATED" data-source-line="18" data-uid="lnk21" id="link_IN_PROGRESS_ESCALATED"><path d="M479.92,631.9669 C495.54,593.4069 519.69,516.6469 494,458.2969 C488.96,446.8669 484.6642,440.7834 475.3842,432.5334" fill="none" id="IN_PROGRESS-to-ESCALATED" style="stroke:#181818;stroke-width:1;"/><polygon fill="#181818" points="470.9,428.5469,474.9686,437.5161,474.6368,431.8689,480.2839,431.5371,470.9,428.5469" style="stroke:#181818;stroke-width:1;"/><text fill="#000000" font-family="sans-serif" font-size="13" lengthAdjust="spacing" textLength="64.7017" x="506.26" y="534.8638">escalate()</text></g><!--link ESCALATED to IN_PROGRESS--><g class="link" data-entity-1="ESCALATED" data-entity-2="IN_PROGRESS" data-source-line="24" data-uid="lnk26" id="link_ESCALATED_IN_PROGRESS"><path d="M486.5,424.1969 C520.15,440.3569 561.06,466.8269 579,505.2969 C601.89,554.3869 553.0017,600.2266 512.8417,628.5766" fill="none" id="ESCALATED-to-IN_PROGRESS" style="stroke:#181818;stroke-width:1;"/><polygon fill="#181818" points="507.94,632.0369,517.5994,630.1143,512.0248,629.1533,512.9857,623.5787,507.94,632.0369" style="stroke:#181818;stroke-width:1;"/><text fill="#000000" font-family="sans-serif" font-size="13" lengthAdjust="spacing" textLength="104.6284" x="585.47" y="534.8638">continue_work()</text></g><!--link RESOLVED to CLOSED--><g class="link" data-entity-1="RESOLVED" data-entity-2="CLOSED" data-source-line="20" data-uid="lnk23" id="link_RESOLVED_CLOSED"><path d="M305.99,827.3369 C302.66,854.1769 298.0879,891.1524 294.7579,918.0224" fill="none" id="RESOLVED-to-CLOSED" style="stroke:#181818;stroke-width:1;"/><polygon fill="#181818" points="294.02,923.9769,299.0965,915.5372,294.6349,919.0148,291.1573,914.5532,294.02,923.9769" style="stroke:#181818;stroke-width:1;"/><text fill="#000000" font-family="sans-serif" font-size="13" lengthAdjust="spacing" textLength="43.6274" x="384.5392" y="872.7638">close()</text><text fill="#000000" font-family="sans-serif" font-size="13" lengthAdjust="spacing" textLength="207.4858" x="302.61" y="887.8966">(CRITICAL must have summary)</text></g><!--link CANCELLED to *end*--><g class="link" data-entity-1="CANCELLED" data-entity-2=".end." data-source-line="26" data-uid="lnk28" id="link_CANCELLED_.end."><path d="M170.94,682.6869 C180.04,758.1869 206.8121,980.18 213.0221,1031.71" fill="none" id="CANCELLED-to-*end*" style="stroke:#181818;stroke-width:1;"/><polygon fill="#181818" points="213.74,1037.6669,216.6344,1028.2529,213.1418,1032.7028,208.6919,1029.2101,213.74,1037.6669" style="stroke:#181818;stroke-width:1;"/></g><!--link CLOSED to *end*--><g class="link" data-entity-1="CLOSED" data-entity-2=".end." data-source-line="27" data-uid="lnk29" id="link_CLOSED_.end."><path d="M272.02,974.7969 C255.49,996.0469 236.1753,1020.882 225.1153,1035.092" fill="none" id="CLOSED-to-*end*" style="stroke:#181818;stroke-width:1;"/><polygon fill="#181818" points="221.43,1039.8269,230.1145,1035.1814,224.501,1035.8812,223.8013,1030.2678,221.43,1039.8269" style="stroke:#181818;stroke-width:1;"/></g><!--SRC=[TPDDZjf048NtFaKjOIGkC8j85dYG9GUGZR998bIq2rDAkvlfRZFAkNA4N2pLPWnuCcmiM_LLlLS_3XmqGMuKrsJ2YxPlC8CgO23uYkh8Xc31s3Xia-Jxqq-OpRx0UfEjaYG- -yzjcQVBR07F49oWD9dUOlDqDS-AeeygD8hqVJIhvccHRlieUOLQP2MU31KZarPLlbpr27hFZPauyYThFEurJKVefsBtm2EzgqQ4yjLkKwwNPLPLWlc0BkpUhFibu8ZxL6r4F9AxLuYSlAoBRpqclLbzfedlsXRTx-b_xAEQrngzjM9TNNnfwoNymqpcPRxD9HNQpWSuufdWgZ7A7RVlo9x8z1Nu0CO6E3ZRlWk8xCtEXrqvmhYi7Pfwfwm9RBheSyoFjGPic7Poct24vVgIzyQ6pqGC4JXkZW7iuNAN09dihBR0XXMZ1jM91mjUG3fP5r2GpaZuSlAKaAbZP_Int30MuJVe48OHFaDDUv8Pxid5XNKj6M5AUksO7CLQV625Yl_-YJejrOozx2Bc1JANlE68eP-KM7xevDAs57XX8ntD189pHt8eWFT352BjQWw5RKIWOHzSB0kmvPPq_9ULRK-QmaZi7m00]--></g></svg>