<svg xmlns="http://www.w3.org/2000/svg" xmlns:xlink="http://www.w3.org/1999/xlink" contentStyleType="text/css" data-diagram-type="DESCRIPTION" height="1150px" preserveAspectRatio="none" style="width:952px;height:1150px;background:#FFFFFF;" version="1.1" viewBox="0 0 952 1150" width="952px" zoomAndPan="magnify"><title>IncidentFlow - Hexagonal Architecture</title><defs/><g><g class="title" data-source-line="1"><text fill="#000000" font-family="sans-serif" font-size="14" font-weight="bold" lengthAdjust="spacing" textLength="303.6865" x="317.3517" y="22.9951">IncidentFlow - Hexagonal Architecture</text></g><!--cluster FRONTEND LAYER--><g class="cluster" data-entity="FRONTEND LAYER" data-source-line="9" data-uid="ent0002" id="cluster_FRONTEND LAYER"><rect fill="#E1F5FE" height="87.3" rx="2.5" ry="2.5" style="stroke:#01579B;stroke-width:1;" width="157" x="66" y="44.2969"/><text fill="#01579B" font-family="sans-serif" font-size="14" font-weight="bold" lengthAdjust="spacing" textLength="141.5244" x="73.7378" y="59.292">FRONTEND LAYER</text></g><!--cluster API LAYER--><g class="cluster" data-entity="API LAYER" data-source-line="13" data-uid="ent0004" id="cluster_API LAYER"><rect fill="#E1F5FE" height="87.29" rx="2.5" ry="2.5" style="stroke:#01579B;stroke-width:1;" width="218" x="35" y="155.5969"/><text fill="#01579B" font-family="sans-serif" font-size="14" font-weight="bold" lengthAdjust="spacing" textLength="81.416" x="103.292" y="170.592">API LAYER</text></g><!--cluster APPLICATION LAYER--><g class="cluster" data-entity="APPLICATION LAYER" data-source-line="17" data-uid="ent0006" id="cluster_APPLICATION LAYER"><rect fill="#E1F5FE" height="281.38" rx="2.5" ry="2.5" style="stroke:#01579B;stroke-width:1;" width="274" x="7" y="266.8869"/><text fill="#01579B" font-family="sans-serif" font-size="14" font-weight="bold" lengthAdjust="spacing" textLength="160.084" x="63.958" y="281.882">APPLICATION LAYER</text></g><!--cluster DOMAIN LAYER (Core Business)--><g class="cluster" data-entity="DOMAIN LAYER .Core Business." data-source-line="23" data-uid="ent0009" id="cluster_DOMAIN LAYER .Core Business."><rect fill="#E1F5FE" height="434.71" rx="2.5" ry="2.5" style="stroke:#01579B;stroke-width:1;" width="391" x="305" y="420.2269"/><text fill="#01579B" font-family="sans-serif" font-size="14" font-weight="bold" lengthAdjust="spacing" textLength="249.0605" x="375.9697" y="435.222">DOMAIN LAYER (Core Business)</text></g><!--cluster INFRASTRUCTURE LAYER--><g class="cluster" data-entity="INFRASTRUCTURE LAYER" data-source-line="33" data-uid="ent0014" id="cluster_INFRASTRUCTURE LAYER"><rect fill="#E1F5FE" height="265.08" rx="2.5" ry="2.5" style="stroke:#01579B;stroke-width:1;" width="447" x="237" y="878.9369"/><text fill="#01579B" font-family="sans-serif" font-size="14" font-weight="bold" lengthAdjust="spacing" textLength="196.5332" x="362.2334" y="893.932">INFRASTRUCTURE LAYER</text></g><!--entity StreamlitUI--><g class="entity" data-entity="StreamlitUI" data-source-line="10" data-uid="ent0003" id="entity_StreamlitUI"><rect fill="#E1F5FE" height="36.2969" rx="2.5" ry="2.5" style="stroke:#01579B;stroke-width:0.5;" width="103.0566" x="92.47" y="79.2969"/><text fill="#01579B" font-family="sans-serif" font-size="14" lengthAdjust="spacing" textLength="83.0566" x="102.47" y="102.292">Streamlit UI</text></g><!--entity FastAPI--><g class="entity" data-entity="FastAPI" data-source-line="14" data-uid="ent0005" id="entity_FastAPI"><rect fill="#E1F5FE" height="36.2969" rx="2.5" ry="2.5" style="stroke:#01579B;stroke-width:0.5;" width="186.0791" x="50.96" y="190.5969"/><text fill="#01579B" font-family="sans-serif" font-size="14" lengthAdjust="spacing" textLength="166.0791" x="60.96" y="213.592">FastAPI REST Endpoints</text></g><!--entity UseCases--><g class="entity" data-entity="UseCases" data-source-line="18" data-uid="ent0007" id="entity_UseCases"><rect fill="#E1F5FE" height="85.1875" rx="2.5" ry="2.5" style="stroke:#01579B;stroke-width:0.5;" width="242.4346" x="22.78" y="301.8869"/><text fill="#01579B" font-family="sans-serif" font-size="14" lengthAdjust="spacing" textLength="72.1602" x="32.78" y="324.882">Use Cases</text><text fill="#01579B" font-family="sans-serif" font-size="14" lengthAdjust="spacing" textLength="217.3555" x="32.78" y="341.1789">CreateIncident, TriageIncident,</text><text fill="#01579B" font-family="sans-serif" font-size="14" lengthAdjust="spacing" textLength="222.4346" x="32.78" y="357.4757">AssignIncident, TransitionState,</text><text fill="#01579B" font-family="sans-serif" font-size="14" lengthAdjust="spacing" textLength="216.2617" x="32.78" y="373.7726">AddComment, ChangeSeverity</text></g><!--entity DTOs--><g class="entity" data-entity="DTOs" data-source-line="20" data-uid="ent0008" id="entity_DTOs"><rect fill="#E1F5FE" height="85.1875" rx="2.5" ry="2.5" style="stroke:#01579B;stroke-width:0.5;" width="161.9551" x="63.02" y="447.0769"/><text fill="#01579B" font-family="sans-serif" font-size="14" lengthAdjust="spacing" textLength="127.9688" x="73.02" y="470.072">DTOs &amp; Validators</text><text fill="#01579B" font-family="sans-serif" font-size="14" lengthAdjust="spacing" textLength="138.0791" x="73.02" y="486.3689">IncidentCreateDTO,</text><text fill="#01579B" font-family="sans-serif" font-size="14" lengthAdjust="spacing" textLength="141.9551" x="73.02" y="502.6657">IncidentUpdateDTO,</text><text fill="#01579B" font-family="sans-serif" font-size="14" lengthAdjust="spacing" textLength="98.9434" x="73.02" y="518.9626">CommentDTO</text></g><!--entity Entities--><g class="entity" data-entity="Entities" data-source-line="24" data-uid="ent0010" id="entity_Entities"><rect fill="#E1F5FE" height="68.8906" rx="2.5" ry="2.5" style="stroke:#01579B;stroke-width:0.5;" width="212.0078" x="395" y="455.2269"/><text fill="#01579B" font-family="sans-serif" font-size="14" lengthAdjust="spacing" textLength="52.3838" x="405" y="478.222">Entities</text><text fill="#01579B" font-family="sans-serif" font-size="14" lengthAdjust="spacing" textLength="138.3936" x="405" y="494.5189">Incident, Comment,</text><text fill="#01579B" font-family="sans-serif" font-size="14" lengthAdjust="spacing" textLength="192.0078" x="405" y="510.8157">User, AuditLog, Notification</text></g><!--entity ValueObjects--><g class="entity" data-entity="ValueObjects" data-source-line="26" data-uid="ent0011" id="entity_ValueObjects"><rect fill="#E1F5FE" height="68.8906" rx="2.5" ry="2.5" style="stroke:#01579B;stroke-width:0.5;" width="184.6777" x="320.66" y="600.4169"/><text fill="#01579B" font-family="sans-serif" font-size="14" lengthAdjust="spacing" textLength="96.8721" x="330.66" y="623.412">Value Objects</text><text fill="#01579B" font-family="sans-serif" font-size="14" lengthAdjust="spacing" textLength="164.6777" x="330.66" y="639.7089">Severity, IncidentState,</text><text fill="#01579B" font-family="sans-serif" font-size="14" lengthAdjust="spacing" textLength="82.5371" x="330.66" y="656.0057">Role enums</text></g><!--entity Rules--><g class="entity" data-entity="Rules" data-source-line="28" data-uid="ent0012" id="entity_Rules"><rect fill="#E1F5FE" height="85.1875" rx="2.5" ry="2.5" style="stroke:#01579B;stroke-width:0.5;" width="139.1025" x="540.45" y="592.2669"/><text fill="#01579B" font-family="sans-serif" font-size="14" lengthAdjust="spacing" textLength="104.583" x="550.45" y="615.262">Business Rules</text><text fill="#01579B" font-family="sans-serif" font-size="14" lengthAdjust="spacing" textLength="104.5625" x="550.45" y="631.5589">State Machine,</text><text fill="#01579B" font-family="sans-serif" font-size="14" lengthAdjust="spacing" textLength="110.7627" x="550.45" y="647.8557">CRITICAL Rules,</text><text fill="#01579B" font-family="sans-serif" font-size="14" lengthAdjust="spacing" textLength="119.1025" x="550.45" y="664.1526">Permission Rules</text></g><!--entity Abstractions--><g class="entity" data-entity="Abstractions" data-source-line="30" data-uid="ent0013" id="entity_Abstractions"><rect fill="#E1F5FE" height="101.4844" rx="2.5" ry="2.5" style="stroke:#01579B;stroke-width:0.5;" width="210.0186" x="469.99" y="737.4569"/><text fill="#01579B" font-family="sans-serif" font-size="14" lengthAdjust="spacing" textLength="172.7373" x="479.99" y="760.452">Abstractions (Interfaces)</text><text fill="#01579B" font-family="sans-serif" font-size="14" lengthAdjust="spacing" textLength="140.1025" x="479.99" y="776.7489">IIncidentRepository,</text><text fill="#01579B" font-family="sans-serif" font-size="14" lengthAdjust="spacing" textLength="152.2432" x="479.99" y="793.0457">ICommentRepository,</text><text fill="#01579B" font-family="sans-serif" font-size="14" lengthAdjust="spacing" textLength="145.6191" x="479.99" y="809.3426">IAuditLogRepository,</text><text fill="#01579B" font-family="sans-serif" font-size="14" lengthAdjust="spacing" textLength="190.0186" x="479.99" y="825.6395">IUserRepository, IEventBus</text></g><!--entity DB--><g class="entity" data-entity="DB" data-source-line="34" data-uid="ent0015" id="entity_DB"><rect fill="#E1F5FE" height="68.8906" rx="2.5" ry="2.5" style="stroke:#01579B;stroke-width:0.5;" width="172.0039" x="276" y="1059.1269"/><text fill="#01579B" font-family="sans-serif" font-size="14" lengthAdjust="spacing" textLength="152.0039" x="286" y="1082.122">PostgreSQL Database</text><text fill="#01579B" font-family="sans-serif" font-size="14" lengthAdjust="spacing" textLength="130.0059" x="286" y="1098.4189">SQLAlchemy ORM,</text><text fill="#01579B" font-family="sans-serif" font-size="14" lengthAdjust="spacing" textLength="133.9434" x="286" y="1114.7157">Alembic Migrations</text></g><!--entity Repositories--><g class="entity" data-entity="Repositories" data-source-line="36" data-uid="ent0016" id="entity_Repositories"><rect fill="#E1F5FE" height="85.1875" rx="2.5" ry="2.5" style="stroke:#01579B;stroke-width:0.5;" width="217.9824" x="253.01" y="913.9369"/><text fill="#01579B" font-family="sans-serif" font-size="14" lengthAdjust="spacing" textLength="197.9824" x="263.01" y="936.932">Repository Implementations</text><text fill="#01579B" font-family="sans-serif" font-size="14" lengthAdjust="spacing" textLength="166.5166" x="263.01" y="953.2289">IncidentRepositoryImpl,</text><text fill="#01579B" font-family="sans-serif" font-size="14" lengthAdjust="spacing" textLength="178.6572" x="263.01" y="969.5257">CommentRepositoryImpl,</text><text fill="#01579B" font-family="sans-serif" font-size="14" lengthAdjust="spacing" textLength="167.583" x="263.01" y="985.8226">AuditLogRepositoryImpl</text></g><!--entity EventBus--><g class="entity" data-entity="EventBus" data-source-line="38" data-uid="ent0017" id="entity_EventBus"><rect fill="#E1F5FE" height="68.8906" rx="2.5" ry="2.5" style="stroke:#01579B;stroke-width:0.5;" width="161.4561" x="506.27" y="922.0869"/><text fill="#01579B" font-family="sans-serif" font-size="14" lengthAdjust="spacing" textLength="70.3281" x="516.27" y="945.082">Event Bus</text><text fill="#01579B" font-family="sans-serif" font-size="14" lengthAdjust="spacing" textLength="141.4561" x="516.27" y="961.3789">In-Memory Pub/Sub,</text><text fill="#01579B" font-family="sans-serif" font-size="14" lengthAdjust="spacing" textLength="136.5205" x="516.27" y="977.6757">Notification Service</text></g><g class="entity" data-entity="GMN31" data-source-line="56" data-uid="ent0032" id="entity_GMN31"><path d="M714.17,607.1569 L714.17,662.5553 A0,0 0 0 0 714.17,662.5553 L905.8204,662.5553 A0,0 0 0 0 905.8204,662.5553 L905.8204,617.1569 L895.8204,607.1569 L755.74,607.1569 L574.23,524.6069 L747.74,607.1569 L714.17,607.1569 A0,0 0 0 0 714.17,607.1569" fill="#FEFFDD" style="stroke:#181818;stroke-width:0.5;"/><path d="M895.8204,607.1569 L895.8204,617.1569 L905.8204,617.1569 L895.8204,607.1569" fill="#FEFFDD" style="stroke:#181818;stroke-width:0.5;"/><text fill="#000000" font-family="sans-serif" font-size="13" lengthAdjust="spacing" textLength="124.9219" x="720.17" y="624.2238">Pure business logic</text><text fill="#000000" font-family="sans-serif" font-size="13" lengthAdjust="spacing" textLength="170.6504" x="720.17" y="639.3566">No external dependencies</text><text fill="#000000" font-family="sans-serif" font-size="13" lengthAdjust="spacing" textLength="130.5713" x="720.17" y="654.4894">Testable in isolation</text></g><g class="entity" data-entity="GMN34" data-source-line="62" data-uid="ent0035" id="entity_GMN34"><path d="M699.72,1073.4369 L699.72,1113.7025 L918.2718,1113.7025 L918.2718,1083.4369 L908.2718,1073.4369 L699.72,1073.4369" fill="#FEFFDD" style="stroke:#181818;stroke-width:0.5;"/><path d="M908.2718,1073.4369 L908.2718,1083.4369 L918.2718,1083.4369 L908.2718,1073.4369" fill="#FEFFDD" style="stroke:#181818;stroke-width:1;"/><text fill="#000000" font-family="sans-serif" font-size="13" lengthAdjust="spacing" textLength="195.8252" x="705.72" y="1090.5038">Concrete DB implementations</text><text fill="#000000" font-family="sans-serif" font-size="13" lengthAdjust="spacing" textLength="197.5518" x="705.72" y="1105.6366">Dependency inversion pattern</text></g><g class="entity" data-entity="GMN37" data-source-line="67" data-uid="ent0038" id="entity_GMN37"><path d="M68.89,760.4969 L68.89,815.8953 L289.1175,815.8953 L289.1175,770.4969 L279.1175,760.4969 L68.89,760.4969" fill="#FEFFDD" style="stroke:#181818;stroke-width:0.5;"/><path d="M279.1175,760.4969 L279.1175,770.4969 L289.1175,770.4969 L279.1175,760.4969" fill="#FEFFDD" style="stroke:#181818;stroke-width:1;"/><text fill="#000000" font-family="sans-serif" font-size="13" lengthAdjust="spacing" textLength="130.1523" x="74.89" y="777.5638">All state transitions,</text><text fill="#000000" font-family="sans-serif" font-size="13" lengthAdjust="spacing" textLength="199.2275" x="74.89" y="792.6966">permission checks, validations</text><text fill="#000000" font-family="sans-serif" font-size="13" lengthAdjust="spacing" textLength="138.9438" x="74.89" y="807.8294">NO DATABASE CALLS</text></g><!--link StreamlitUI to FastAPI--><g class="link" data-entity-1="StreamlitUI" data-entity-2="FastAPI" data-source-line="41" data-uid="lnk18" id="link_StreamlitUI_FastAPI"><path d="M144,116.0069 C144,136.4069 144,163.8469 144,184.2269" fill="none" id="StreamlitUI-to-FastAPI" style="stroke:#181818;stroke-width:1;"/><polygon fill="#181818" points="144,190.2269,148,181.2269,144,185.2269,140,181.2269,144,190.2269" style="stroke:#181818;stroke-width:1;"/></g><!--link FastAPI to UseCases--><g class="link" data-entity-1="FastAPI" data-entity-2="UseCases" data-source-line="42" data-uid="lnk19" id="link_FastAPI_UseCases"><path d="M144,227.2269 C144,245.9869 144,270.4769 144,295.5169" fill="none" id="FastAPI-to-UseCases" style="stroke:#181818;stroke-width:1;"/><polygon fill="#181818" points="144,301.5169,148,292.5169,144,296.5169,140,292.5169,144,301.5169" style="stroke:#181818;stroke-width:1;"/></g><!--link UseCases to DTOs--><g class="link" data-entity-1="UseCases" data-entity-2="DTOs" data-source-line="43" data-uid="lnk20" id="link_UseCases_DTOs"><path d="M144,387.2869 C144,406.1069 144,422.2669 144,441.0669" fill="none" id="UseCases-to-DTOs" style="stroke:#181818;stroke-width:1;"/><polygon fill="#181818" points="144,447.0669,148,438.0669,144,442.0669,140,438.0669,144,447.0669" style="stroke:#181818;stroke-width:1;"/></g><!--link UseCases to Entities--><g class="link" data-entity-1="UseCases" data-entity-2="Entities" data-source-line="44" data-uid="lnk21" id="link_UseCases_Entities"><path d="M248.7,387.4769 C302.09,408.8969 360.6011,432.3636 410.8211,452.5036" fill="none" id="UseCases-to-Entities" style="stroke:#181818;stroke-width:1;"/><polygon fill="#181818" points="416.39,454.7369,409.5256,447.6743,411.7493,452.8758,406.5478,455.0995,416.39,454.7369" style="stroke:#181818;stroke-width:1;"/></g><!--link UseCases to Abstractions--><g class="link" data-entity-1="UseCases" data-entity-2="Abstractions" data-source-line="45" data-uid="lnk22" id="link_UseCases_Abstractions"><path d="M265.55,348.8269 C364.77,354.7169 507.3,370.5069 625,412.2269 C770.85,463.9269 846.97,457.4969 923,592.2669 C941.6,625.2469 945.39,646.9169 923,677.4569 C893.88,717.1769 777.605,747.9183 686.195,766.8783" fill="none" id="UseCases-to-Abstractions" style="stroke:#181818;stroke-width:1;"/><polygon fill="#181818" points="680.32,768.0969,689.9448,770.1857,685.2158,767.0814,688.3201,762.3524,680.32,768.0969" style="stroke:#181818;stroke-width:1;"/></g><!--link Entities to ValueObjects--><g class="link" data-entity-1="Entities" data-entity-2="ValueObjects" data-source-line="47" data-uid="lnk23" id="link_Entities_ValueObjects"><path d="M480.15,524.6069 C466.12,547.4269 450.841,572.2847 436.851,595.0547" fill="none" id="Entities-to-ValueObjects" style="stroke:#181818;stroke-width:1;"/><polygon fill="#181818" points="433.71,600.1669,441.8295,594.5926,436.3275,595.9067,435.0133,590.4046,433.71,600.1669" style="stroke:#181818;stroke-width:1;"/></g><!--link Entities to Rules--><g class="link" data-entity-1="Entities" data-entity-2="Rules" data-source-line="48" data-uid="lnk24" id="link_Entities_Rules"><path d="M526.83,524.6069 C542.19,544.7869 558.1648,565.7735 574.4848,587.2035" fill="none" id="Entities-to-Rules" style="stroke:#181818;stroke-width:1;"/><polygon fill="#181818" points="578.12,591.9769,575.8495,582.3933,575.0907,587.999,569.4849,587.2402,578.12,591.9769" style="stroke:#181818;stroke-width:1;"/></g><!--link Rules to Abstractions--><g class="link" data-entity-1="Rules" data-entity-2="Abstractions" data-source-line="49" data-uid="lnk25" id="link_Rules_Abstractions"><path d="M600.34,677.6169 C596.09,695.9869 592.4214,711.881 587.9714,731.131" fill="none" id="Rules-to-Abstractions" style="stroke:#181818;stroke-width:1;"/><polygon fill="#181818" points="586.62,736.9769,592.5443,729.109,587.7461,732.1053,584.7498,727.3072,586.62,736.9769" style="stroke:#181818;stroke-width:1;"/></g><!--reverse link Abstractions to Repositories--><g class="link" data-entity-1="Abstractions" data-entity-2="Repositories" data-source-line="51" data-uid="lnk27" id="link_Abstractions_Repositories"><path d="M506.0714,843.0201 C475.7014,866.7401 444.56,891.0569 415.66,913.6269" fill="none" id="Abstractions-backto-Repositories" style="stroke:#181818;stroke-width:1;stroke-dasharray:7,7;"/><polygon fill="#181818" points="510.8,839.3269,501.2449,841.7143,506.8595,842.4046,506.1692,848.0191,510.8,839.3269" style="stroke:#181818;stroke-width:1;"/></g><!--link Repositories to DB--><g class="link" data-entity-1="Repositories" data-entity-2="DB" data-source-line="52" data-uid="lnk28" id="link_Repositories_DB"><path d="M362,999.5169 C362,1018.5669 362,1034.7869 362,1052.7469" fill="none" id="Repositories-to-DB" style="stroke:#181818;stroke-width:1;"/><polygon fill="#181818" points="362,1058.7469,366,1049.7469,362,1053.7469,358,1049.7469,362,1058.7469" style="stroke:#181818;stroke-width:1;"/></g><!--reverse link Abstractions to EventBus--><g class="link" data-entity-1="Abstractions" data-entity-2="EventBus" data-source-line="53" data-uid="lnk30" id="link_Abstractions_EventBus"><path d="M579.0327,845.0912 C580.9627,871.7812 582.85,897.9769 584.56,921.7269" fill="none" id="Abstractions-backto-EventBus" style="stroke:#181818;stroke-width:1;stroke-dasharray:7,7;"/><polygon fill="#181818" points="578.6,839.1069,575.2595,848.3719,578.9606,844.0939,583.2387,847.7949,578.6,839.1069" style="stroke:#181818;stroke-width:1;"/></g><!--link Repositories to GMN34--><g class="link" data-entity-1="Repositories" data-entity-2="GMN34" data-source-line="62" data-uid="lnk36" id="link_Repositories_GMN34"><path d="M471.38,993.6069 C477.34,995.4869 483.24,997.3369 489,999.1269 C574.97,1025.7469 674.57,1054.5069 739.52,1072.9869" fill="none" id="Repositories-GMN34" style="stroke:#181818;stroke-width:1;stroke-dasharray:7,7;"/></g><!--link Rules to GMN37--><g class="link" data-entity-1="Rules" data-entity-2="GMN37" data-source-line="67" data-uid="lnk39" id="link_Rules_GMN37"><path d="M540.19,670.5469 C534.43,673.0069 528.65,675.3469 523,677.4569 C428.85,712.5969 400.32,705.6269 305,737.4569 C284.92,744.1569 263.39,752.2969 243.91,760.0369" fill="none" id="Rules-GMN37" style="stroke:#181818;stroke-width:1;stroke-dasharray:7,7;"/></g><!--SRC=[VLLDQzj04BthLmmfb0Jij3c4qaj1jcKgy5SakL38PIrDb6saNR6xScDA_tjdLv9bsKalndxpyMRUp8uDDmL2A5AUeJ3pGlw6CNp7LvPBmGhmLVhC3QQcLkXv-eMBYYbMWYA8YPn2_tW04vQ-v4hM8flAGYhu4DpDx-U1jKYLeMhHptVtNxvE29rBOORONy_hKrxDe_Kg2LOpMFW_W-ZASPoOOwEGbGKti0slW6au0jlmB9E_2Tz9CcVQM6iKn0a48gia5qQxTAtf8jLc4Kxz95oltacvrGXJfb4_YYaLPB2JTGI9uYplVpyANskUYrC79ZGtN8hOKAJro4ZDidJMwJDHO8nxLDmSN954vhYyOGspPAtX8_nW1S-OaOfgwKYQciXXr6FRAZjYBHlzS0Gsqva4i_NI3zlkuNeg5SAarboWrZSNQWJ2K3zuKW3rqJRqAAXyDGA_phXPo7m4Asdu4q-PLS3HT-5d_L5ZDS9wzuiWIjr9CZgkS2TV9CaTHLqsCtLnRTXPogu5YEh2bkiom9BHvWkRQHg52Gr-qTW9sA0gESrFYWPo1ExRMMP_furYgUr9mtKe3AedbgA-8KswUYEi90rUgeCTIolG4EnK6g9MmHC4mc1FaTICA-UK-coAuMeU-N4IRQV9DWhUsUMDr2PN63yiOCOCsz6gaJ8F2xz8dx4ym3fQsXqjiDpn59OyLsvq3VbiSYP4NoU4PKL1L6dZtsz7xsDT-dsym2_bi8Pc21rqkJXE7Rkkbd6ynD8Miwbtd-9wHqbFzmzYL7kUOhE7hQfMn9Cx0-Fnj-EXw6w9nOxlillYKFUO1iXnlmVeO6nUv-DCWmqUM9hLSvzl93dL16xhwlRCOM1tjKwyhkct_3qXwNdif36o1FdKDm8a9rs4NVUS2fdpbD2L17obrRV_9nbMA6ZQQHEGeARTel5m0LpBmidlaGTOaWkgmNY1heb85PB7R09yk5PadNLK1yfELyAzruePMyb_A9oM07vHW7Q7m1mlinwHeUeVFxs4z4MFODySsvPtjOQPd_WJFmw0hiOYxid-0G00]--></g></svg>