<svg xmlns="http://www.w3.org/2000/svg" xmlns:xlink="http://www.w3.org/1999/xlink" contentStyleType="text/css" data-diagram-type="DESCRIPTION" height="876px" preserveAspectRatio="none" style="width:649px;height:876px;background:#FFFFFF;" version="1.1" viewBox="0 0 649 876" width="649px" zoomAndPan="magnify"><title>IncidentFlow - Use Case Diagram</title><defs/><g><g class="title" data-source-line="1"><text fill="#000000" font-family="sans-serif" font-size="14" font-weight="bold" lengthAdjust="spacing" textLength="260.2441" x="187.5429" y="22.9951">IncidentFlow - Use Case Diagram</text></g><!--cluster IncidentFlow System--><g class="cluster" data-entity="IncidentFlow System" data-source-line="11" data-uid="ent0007" id="cluster_IncidentFlow System"><rect fill="none" height="826" rx="2.5" ry="2.5" style="stroke:#181818;stroke-width:1;" width="507.01" x="136.32" y="44.2969"/><text fill="#000000" font-family="sans-serif" font-size="14" font-weight="bold" lengthAdjust="spacing" textLength="164.5547" x="307.5477" y="59.292">IncidentFlow System</text></g><!--entity UC1--><g class="entity" data-entity="UC1" data-source-line="13" data-uid="ent0008" id="entity_UC1"><ellipse cx="227.7969" cy="299.2943" fill="#F1F1F1" rx="70.5369" ry="16.5074" style="stroke:#181818;stroke-width:0.5;"/><text fill="#000000" font-family="sans-serif" font-size="14" lengthAdjust="spacing" textLength="107.7275" x="173.9331" y="303.9427">Create Incident</text></g><!--entity UC2--><g class="entity" data-entity="UC2" data-source-line="14" data-uid="ent0009" id="entity_UC2"><ellipse cx="227.8045" cy="634.3018" fill="#F1F1F1" rx="69.5245" ry="16.3049" style="stroke:#181818;stroke-width:0.5;"/><text fill="#000000" font-family="sans-serif" font-size="14" lengthAdjust="spacing" textLength="105.1777" x="175.2157" y="638.9502">Triage Incident</text></g><!--entity UC3--><g class="entity" data-entity="UC3" data-source-line="15" data-uid="ent0010" id="entity_UC3"><ellipse cx="227.8041" cy="702.2937" fill="#F1F1F1" rx="70.1341" ry="16.4268" style="stroke:#181818;stroke-width:0.5;"/><text fill="#000000" font-family="sans-serif" font-size="14" lengthAdjust="spacing" textLength="106.7158" x="174.4462" y="706.9421">Assign Incident</text></g><!--entity UC4--><g class="entity" data-entity="UC4" data-source-line="16" data-uid="ent0011" id="entity_UC4"><ellipse cx="227.7998" cy="366.2968" fill="#F1F1F1" rx="67.6498" ry="15.93" style="stroke:#181818;stroke-width:0.5;"/><text fill="#000000" font-family="sans-serif" font-size="14" lengthAdjust="spacing" textLength="100.3926" x="177.6035" y="370.9453">Add Comment</text></g><!--entity UC5--><g class="entity" data-entity="UC5" data-source-line="17" data-uid="ent0012" id="entity_UC5"><ellipse cx="227.8005" cy="432.301" fill="#F1F1F1" rx="65.6205" ry="15.5241" style="stroke:#181818;stroke-width:0.5;"/><text fill="#000000" font-family="sans-serif" font-size="14" lengthAdjust="spacing" textLength="95.1084" x="180.2463" y="436.9494">Change State</text></g><!--entity UC6--><g class="entity" data-entity="UC6" data-source-line="18" data-uid="ent0013" id="entity_UC6"><ellipse cx="227.7961" cy="566.2921" fill="#F1F1F1" rx="73.8261" ry="17.1652" style="stroke:#181818;stroke-width:0.5;"/><text fill="#000000" font-family="sans-serif" font-size="14" lengthAdjust="spacing" textLength="115.8691" x="169.8616" y="570.9405">Change Severity</text></g><!--entity UC7--><g class="entity" data-entity="UC7" data-source-line="19" data-uid="ent0014" id="entity_UC7"><ellipse cx="227.8039" cy="162.2997" fill="#F1F1F1" rx="65.3639" ry="15.4728" style="stroke:#181818;stroke-width:0.5;"/><text fill="#000000" font-family="sans-serif" font-size="14" lengthAdjust="spacing" textLength="94.4316" x="180.5881" y="166.9481">View Incident</text></g><!--entity UC8--><g class="entity" data-entity="UC8" data-source-line="20" data-uid="ent0015" id="entity_UC8"><ellipse cx="227.7972" cy="230.2943" fill="#F1F1F1" rx="73.1372" ry="17.0274" style="stroke:#181818;stroke-width:0.5;"/><text fill="#000000" font-family="sans-serif" font-size="14" lengthAdjust="spacing" textLength="114.1807" x="170.7069" y="234.9428">View Dashboard</text></g><!--entity UC9--><g class="entity" data-entity="UC9" data-source-line="21" data-uid="ent0016" id="entity_UC9"><ellipse cx="227.7969" cy="95.3003" fill="#F1F1F1" rx="69.2169" ry="16.2434" style="stroke:#181818;stroke-width:0.5;"/><text fill="#000000" font-family="sans-serif" font-size="14" lengthAdjust="spacing" textLength="104.3984" x="175.5977" y="99.9487">View Audit Log</text></g><!--entity UC10--><g class="entity" data-entity="UC10" data-source-line="22" data-uid="ent0017" id="entity_UC10"><ellipse cx="227.8029" cy="498.2995" fill="#F1F1F1" rx="67.2129" ry="15.8426" style="stroke:#181818;stroke-width:0.5;"/><text fill="#000000" font-family="sans-serif" font-size="14" lengthAdjust="spacing" textLength="99.2646" x="178.1706" y="502.9479">Manage Users</text></g><!--entity UC11--><g class="entity" data-entity="UC11" data-source-line="23" data-uid="ent0018" id="entity_UC11"><ellipse cx="227.7993" cy="837.2927" fill="#F1F1F1" rx="75.4793" ry="17.4959" style="stroke:#181818;stroke-width:0.5;"/><text fill="#000000" font-family="sans-serif" font-size="14" lengthAdjust="spacing" textLength="119.8887" x="167.855" y="841.9412">Escalate Incident</text></g><!--entity UC12--><g class="entity" data-entity="UC12" data-source-line="24" data-uid="ent0019" id="entity_UC12"><ellipse cx="227.7957" cy="769.292" fill="#F1F1F1" rx="67.1257" ry="15.8251" style="stroke:#181818;stroke-width:0.5;"/><text fill="#000000" font-family="sans-serif" font-size="14" lengthAdjust="spacing" textLength="99.0391" x="178.2762" y="773.9405">Close Incident</text></g><g class="entity" data-entity="GMN20" data-source-line="27" data-uid="ent0021" id="entity_GMN20"><path d="M393.27,546.1669 L393.27,562.2969 L302.06,566.2969 L393.27,570.2969 L393.27,586.4325 A0,0 0 0 0 393.27,586.4325 L597.3491,586.4325 A0,0 0 0 0 597.3491,586.4325 L597.3491,556.1669 L587.3491,546.1669 L393.27,546.1669 A0,0 0 0 0 393.27,546.1669" fill="#FEFFDD" style="stroke:#181818;stroke-width:0.5;"/><path d="M587.3491,546.1669 L587.3491,556.1669 L597.3491,556.1669 L587.3491,546.1669" fill="#FEFFDD" style="stroke:#181818;stroke-width:0.5;"/><text fill="#000000" font-family="sans-serif" font-size="13" lengthAdjust="spacing" textLength="160.1069" x="399.27" y="563.2338">Only Commander/Admin</text><text fill="#000000" font-family="sans-serif" font-size="13" lengthAdjust="spacing" textLength="183.0791" x="399.27" y="578.3666">Triggers audit + notification</text></g><g class="entity" data-entity="GMN23" data-source-line="32" data-uid="ent0024" id="entity_GMN23"><path d="M393.75,749.1669 L393.75,765.2969 L295.12,769.2969 L393.75,773.2969 L393.75,789.4325 A0,0 0 0 0 393.75,789.4325 L596.8516,789.4325 A0,0 0 0 0 596.8516,789.4325 L596.8516,759.1669 L586.8516,749.1669 L393.75,749.1669 A0,0 0 0 0 393.75,749.1669" fill="#FEFFDD" style="stroke:#181818;stroke-width:0.5;"/><path d="M586.8516,749.1669 L586.8516,759.1669 L596.8516,759.1669 L586.8516,749.1669" fill="#FEFFDD" style="stroke:#181818;stroke-width:0.5;"/><text fill="#000000" font-family="sans-serif" font-size="13" lengthAdjust="spacing" textLength="182.1016" x="399.75" y="766.2338">CRITICAL requires summary</text><text fill="#000000" font-family="sans-serif" font-size="13" lengthAdjust="spacing" textLength="160.1069" x="399.75" y="781.3666">Only Commander/Admin</text></g><g class="entity" data-entity="GMN26" data-source-line="37" data-uid="ent0027" id="entity_GMN26"><path d="M363.28,195.0269 L363.28,226.2969 L301.35,230.2969 L363.28,234.2969 L363.28,265.5581 A0,0 0 0 0 363.28,265.5581 L627.3254,265.5581 A0,0 0 0 0 627.3254,265.5581 L627.3254,205.0269 L617.3254,195.0269 L363.28,195.0269 A0,0 0 0 0 363.28,195.0269" fill="#FEFFDD" style="stroke:#181818;stroke-width:0.5;"/><path d="M617.3254,195.0269 L617.3254,205.0269 L627.3254,205.0269 L617.3254,195.0269" fill="#FEFFDD" style="stroke:#181818;stroke-width:0.5;"/><text fill="#000000" font-family="sans-serif" font-size="13" lengthAdjust="spacing" textLength="123.6777" x="369.28" y="212.0938">Operator: basic list</text><text fill="#000000" font-family="sans-serif" font-size="13" lengthAdjust="spacing" textLength="243.0454" x="369.28" y="227.2266">Commander: assignments + timeline</text><text fill="#000000" font-family="sans-serif" font-size="13" lengthAdjust="spacing" textLength="209.0601" x="369.28" y="242.3594">Manager: metrics + dashboards</text><text fill="#000000" font-family="sans-serif" font-size="13" lengthAdjust="spacing" textLength="165.2104" x="369.28" y="257.4922">Admin: full audit visibility</text></g><!--entity Operator--><g class="entity" data-entity="Operator" data-source-line="5" data-uid="ent0002" id="entity_Operator"><ellipse cx="49.1625" cy="209.6469" fill="#F1F1F1" rx="8" ry="8" style="stroke:#181818;stroke-width:0.5;"/><path d="M49.1625,217.6469 L49.1625,244.6469 M36.1625,225.6469 L62.1625,225.6469 M49.1625,244.6469 L36.1625,259.6469 M49.1625,244.6469 L62.1625,259.6469" fill="none" style="stroke:#181818;stroke-width:0.5;"/><text fill="#000000" font-family="sans-serif" font-size="14" lengthAdjust="spacing" textLength="62.665" x="17.83" y="274.142">Operator</text></g><!--entity Commander--><g class="entity" data-entity="Commander" data-source-line="6" data-uid="ent0003" id="entity_Commander"><ellipse cx="49.1621" cy="558.4969" fill="#F1F1F1" rx="8" ry="8" style="stroke:#181818;stroke-width:0.5;"/><path d="M49.1621,566.4969 L49.1621,593.4969 M36.1621,574.4969 L62.1621,574.4969 M49.1621,593.4969 L36.1621,608.4969 M49.1621,593.4969 L62.1621,608.4969" fill="none" style="stroke:#181818;stroke-width:0.5;"/><text fill="#000000" font-family="sans-serif" font-size="14" lengthAdjust="spacing" textLength="56.4512" x="6" y="622.992">Incident</text><text fill="#000000" font-family="sans-serif" font-size="14" lengthAdjust="spacing" textLength="86.3242" x="6" y="639.2889">Commander</text></g><!--entity Responder--><g class="entity" data-entity="Responder" data-source-line="7" data-uid="ent0004" id="entity_Responder"><ellipse cx="49.1579" cy="320.4969" fill="#F1F1F1" rx="8" ry="8" style="stroke:#181818;stroke-width:0.5;"/><path d="M49.1579,328.4969 L49.1579,355.4969 M36.1579,336.4969 L62.1579,336.4969 M49.1579,355.4969 L36.1579,370.4969 M49.1579,355.4969 L62.1579,370.4969" fill="none" style="stroke:#181818;stroke-width:0.5;"/><text fill="#000000" font-family="sans-serif" font-size="14" lengthAdjust="spacing" textLength="66.6641" x="11.55" y="384.992">Technical</text><text fill="#000000" font-family="sans-serif" font-size="14" lengthAdjust="spacing" textLength="75.2158" x="11.55" y="401.2889">Responder</text></g><!--entity Manager--><g class="entity" data-entity="Manager" data-source-line="8" data-uid="ent0005" id="entity_Manager"><ellipse cx="49.1631" cy="98.6469" fill="#F1F1F1" rx="8" ry="8" style="stroke:#181818;stroke-width:0.5;"/><path d="M49.1631,106.6469 L49.1631,133.6469 M36.1631,114.6469 L62.1631,114.6469 M49.1631,133.6469 L36.1631,148.6469 M49.1631,133.6469 L62.1631,148.6469" fill="none" style="stroke:#181818;stroke-width:0.5;"/><text fill="#000000" font-family="sans-serif" font-size="14" lengthAdjust="spacing" textLength="61.3662" x="18.48" y="163.142">Manager</text></g><!--entity Admin--><g class="entity" data-entity="Admin" data-source-line="9" data-uid="ent0006" id="entity_Admin"><ellipse cx="49.1621" cy="447.6469" fill="#F1F1F1" rx="8" ry="8" style="stroke:#181818;stroke-width:0.5;"/><path d="M49.1621,455.6469 L49.1621,482.6469 M36.1621,463.6469 L62.1621,463.6469 M49.1621,482.6469 L36.1621,497.6469 M49.1621,482.6469 L62.1621,497.6469" fill="none" style="stroke:#181818;stroke-width:0.5;"/><text fill="#000000" font-family="sans-serif" font-size="14" lengthAdjust="spacing" textLength="44.8643" x="26.73" y="512.142">Admin</text></g><!--link Operator to UC1--><g class="link" data-entity-1="Operator" data-entity-2="UC1" data-source-line="44" data-uid="lnk29" id="link_Operator_UC1"><path d="M80.93,249.7469 C110.19,259.6869 148.6886,272.7677 180.7586,283.6577" fill="none" id="Operator-to-UC1" style="stroke:#181818;stroke-width:1;"/><polygon fill="#181818" points="186.44,285.5869,179.2041,278.9055,181.7055,283.9792,176.6318,286.4806,186.44,285.5869" style="stroke:#181818;stroke-width:1;"/></g><!--link Operator to UC4--><g class="link" data-entity-1="Operator" data-entity-2="UC4" data-source-line="45" data-uid="lnk30" id="link_Operator_UC4"><path d="M80.61,277.9069 C99.88,301.9769 122.26,329.1469 128.32,333.2969 C142.83,343.2269 154.8354,348.6121 171.2454,353.6621" fill="none" id="Operator-to-UC4" style="stroke:#181818;stroke-width:1;"/><polygon fill="#181818" points="176.98,355.4269,169.5546,348.9567,172.2012,353.9562,167.2016,356.6028,176.98,355.4269" style="stroke:#181818;stroke-width:1;"/></g><!--link Operator to UC7--><g class="link" data-entity-1="Operator" data-entity-2="UC7" data-source-line="46" data-uid="lnk31" id="link_Operator_UC7"><path d="M80.65,220.3569 C94.83,212.0169 112.1,202.5069 128.32,195.2969 C146.45,187.2469 161.4599,181.828 179.2099,176.208" fill="none" id="Operator-to-UC7" style="stroke:#181818;stroke-width:1;"/><polygon fill="#181818" points="184.93,174.3969,175.1424,173.3001,180.1632,175.9061,177.5572,180.927,184.93,174.3969" style="stroke:#181818;stroke-width:1;"/></g><!--link Operator to UC8--><g class="link" data-entity-1="Operator" data-entity-2="UC8" data-source-line="47" data-uid="lnk32" id="link_Operator_UC8"><path d="M80.93,237.7269 C101.69,236.6669 123.9678,235.5319 150.0978,234.2019" fill="none" id="Operator-to-UC8" style="stroke:#181818;stroke-width:1;"/><polygon fill="#181818" points="156.09,233.8969,146.8983,230.3595,151.0965,234.151,147.305,238.3492,156.09,233.8969" style="stroke:#181818;stroke-width:1;"/></g><!--link Commander to UC2--><g class="link" data-entity-1="Commander" data-entity-2="UC2" data-source-line="49" data-uid="lnk33" id="link_Commander_UC2"><path d="M92.47,605.3969 C117.38,610.7569 143.1844,616.3042 169.5244,621.9742" fill="none" id="Commander-to-UC2" style="stroke:#181818;stroke-width:1;"/><polygon fill="#181818" points="175.39,623.2369,167.4333,617.4325,170.502,622.1847,165.7498,625.2533,175.39,623.2369" style="stroke:#181818;stroke-width:1;"/></g><!--link Commander to UC3--><g class="link" data-entity-1="Commander" data-entity-2="UC3" data-source-line="50" data-uid="lnk34" id="link_Commander_UC3"><path d="M92.64,641.2369 C103.58,651.1069 115.81,660.8269 128.32,668.2969 C143.85,677.5669 156.5667,682.9544 173.2467,688.3044" fill="none" id="Commander-to-UC3" style="stroke:#181818;stroke-width:1;"/><polygon fill="#181818" points="178.96,690.1369,171.6117,683.5792,174.1989,688.6098,169.1684,691.197,178.96,690.1369" style="stroke:#181818;stroke-width:1;"/></g><!--link Commander to UC5--><g class="link" data-entity-1="Commander" data-entity-2="UC5" data-source-line="51" data-uid="lnk35" id="link_Commander_UC5"><path d="M82.24,549.5069 C85.72,544.0869 89.15,538.6069 92.32,533.2969 C109.86,503.9369 102.25,487.4169 128.32,465.2969 C141.45,454.1569 152.7496,448.4827 168.9596,443.5527" fill="none" id="Commander-to-UC5" style="stroke:#181818;stroke-width:1;"/><polygon fill="#181818" points="174.7,441.8069,164.9255,440.5987,169.9163,443.2617,167.2533,448.2526,174.7,441.8069" style="stroke:#181818;stroke-width:1;"/></g><!--link Commander to UC6--><g class="link" data-entity-1="Commander" data-entity-2="UC6" data-source-line="52" data-uid="lnk36" id="link_Commander_UC6"><path d="M92.47,589.1069 C114.82,585.3169 136.715,581.6032 161.225,577.4332" fill="none" id="Commander-to-UC6" style="stroke:#181818;stroke-width:1;"/><polygon fill="#181818" points="167.14,576.4269,157.5966,573.9931,162.2108,577.2655,158.9384,581.8797,167.14,576.4269" style="stroke:#181818;stroke-width:1;"/></g><!--link Commander to UC11--><g class="link" data-entity-1="Commander" data-entity-2="UC11" data-source-line="53" data-uid="lnk37" id="link_Commander_UC11"><path d="M56.36,642.9769 C64.87,689.2769 84.46,759.3469 128.32,802.2969 C139.47,813.2169 148.5923,818.7494 163.2923,823.9394" fill="none" id="Commander-to-UC11" style="stroke:#181818;stroke-width:1;"/><polygon fill="#181818" points="168.95,825.9369,161.7951,819.1688,164.2352,824.2723,159.1317,826.7124,168.95,825.9369" style="stroke:#181818;stroke-width:1;"/></g><!--link Commander to UC12--><g class="link" data-entity-1="Commander" data-entity-2="UC12" data-source-line="54" data-uid="lnk38" id="link_Commander_UC12"><path d="M65.96,642.8069 C78.5,673.2869 98.86,711.8569 128.32,736.2969 C141.44,747.1769 152.5558,752.7509 168.5958,757.6909" fill="none" id="Commander-to-UC12" style="stroke:#181818;stroke-width:1;"/><polygon fill="#181818" points="174.33,759.4569,166.906,752.985,169.5515,757.9852,164.5513,760.6306,174.33,759.4569" style="stroke:#181818;stroke-width:1;"/></g><!--link Commander to UC4--><g class="link" data-entity-1="Commander" data-entity-2="UC4" data-source-line="55" data-uid="lnk39" id="link_Commander_UC4"><path d="M83.68,549.7969 C86.86,544.3769 89.82,538.8069 92.32,533.2969 C117.81,477.1469 86.07,444.2069 128.32,399.2969 C139.44,387.4769 149.1996,381.697 164.5896,376.827" fill="none" id="Commander-to-UC4" style="stroke:#181818;stroke-width:1;"/><polygon fill="#181818" points="170.31,375.0169,160.5226,373.9185,165.543,376.5253,162.9361,381.5457,170.31,375.0169" style="stroke:#181818;stroke-width:1;"/></g><!--link Commander to UC7--><g class="link" data-entity-1="Commander" data-entity-2="UC7" data-source-line="56" data-uid="lnk40" id="link_Commander_UC7"><path d="M84.76,549.7969 C87.69,544.4169 90.3,538.8669 92.32,533.2969 C118.08,462.2869 81.02,254.1869 128.32,195.2969 C138.66,182.4369 148.4445,176.3088 164.1345,171.4888" fill="none" id="Commander-to-UC7" style="stroke:#181818;stroke-width:1;"/><polygon fill="#181818" points="169.87,169.7269,160.0922,168.5462,165.0904,171.1952,162.4414,176.1934,169.87,169.7269" style="stroke:#181818;stroke-width:1;"/></g><!--link Commander to UC8--><g class="link" data-entity-1="Commander" data-entity-2="UC8" data-source-line="57" data-uid="lnk41" id="link_Commander_UC8"><path d="M84.6,549.7369 C87.57,544.3769 90.23,538.8369 92.32,533.2969 C134.85,420.8869 52.62,358.6369 128.32,265.2969 C138.1,253.2469 146.6757,247.3541 161.2957,242.1641" fill="none" id="Commander-to-UC8" style="stroke:#181818;stroke-width:1;"/><polygon fill="#181818" points="166.95,240.1569,157.1304,239.3982,162.2381,241.8296,159.8067,246.9373,166.95,240.1569" style="stroke:#181818;stroke-width:1;"/></g><!--link Responder to UC4--><g class="link" data-entity-1="Responder" data-entity-2="UC4" data-source-line="59" data-uid="lnk42" id="link_Responder_UC4"><path d="M87.19,359.9769 C108.54,360.9369 130.0062,361.915 154.9162,363.045" fill="none" id="Responder-to-UC4" style="stroke:#181818;stroke-width:1;"/><polygon fill="#181818" points="160.91,363.3169,152.1005,358.9131,155.9151,363.0903,151.738,366.9049,160.91,363.3169" style="stroke:#181818;stroke-width:1;"/></g><!--link Responder to UC5--><g class="link" data-entity-1="Responder" data-entity-2="UC5" data-source-line="60" data-uid="lnk43" id="link_Responder_UC5"><path d="M86.95,379.1369 C99.82,386.0169 114.51,393.4069 128.32,399.2969 C146.73,407.1469 161.9737,412.5737 179.8137,418.2637" fill="none" id="Responder-to-UC5" style="stroke:#181818;stroke-width:1;"/><polygon fill="#181818" points="185.53,420.0869,178.171,413.5412,180.7664,418.5676,175.7401,421.163,185.53,420.0869" style="stroke:#181818;stroke-width:1;"/></g><!--link Responder to UC7--><g class="link" data-entity-1="Responder" data-entity-2="UC7" data-source-line="61" data-uid="lnk44" id="link_Responder_UC7"><path d="M83.22,311.5769 C86.49,306.1969 89.6,300.6969 92.32,295.2969 C113.62,253.1369 94.55,228.3269 128.32,195.2969 C140.44,183.4469 151.1994,177.592 167.2194,172.722" fill="none" id="Responder-to-UC7" style="stroke:#181818;stroke-width:1;"/><polygon fill="#181818" points="172.96,170.9769,163.1857,169.7675,168.1762,172.4311,165.5125,177.4216,172.96,170.9769" style="stroke:#181818;stroke-width:1;"/></g><!--link Responder to UC8--><g class="link" data-entity-1="Responder" data-entity-2="UC8" data-source-line="62" data-uid="lnk45" id="link_Responder_UC8"><path d="M81.42,311.6169 C94.34,295.1569 110.48,277.6869 128.32,265.2969 C142.56,255.4169 154.1875,249.9332 170.3075,244.5632" fill="none" id="Responder-to-UC8" style="stroke:#181818;stroke-width:1;"/><polygon fill="#181818" points="176,242.6669,166.1971,241.7164,171.2563,244.2471,168.7255,249.3063,176,242.6669" style="stroke:#181818;stroke-width:1;"/></g><!--link Manager to UC7--><g class="link" data-entity-1="Manager" data-entity-2="UC7" data-source-line="64" data-uid="lnk46" id="link_Manager_UC7"><path d="M80.13,134.0669 C106.31,139.1069 138.9882,145.3926 169.9982,151.3626" fill="none" id="Manager-to-UC7" style="stroke:#181818;stroke-width:1;"/><polygon fill="#181818" points="175.89,152.4969,167.8085,146.8676,170.9802,151.5516,166.2961,154.7233,175.89,152.4969" style="stroke:#181818;stroke-width:1;"/></g><!--link Manager to UC8--><g class="link" data-entity-1="Manager" data-entity-2="UC8" data-source-line="65" data-uid="lnk47" id="link_Manager_UC8"><path d="M80.09,158.5169 C93.88,171.1869 111,185.2669 128.32,195.2969 C143.95,204.3469 156.6093,209.7454 173.2193,215.2954" fill="none" id="Manager-to-UC8" style="stroke:#181818;stroke-width:1;"/><polygon fill="#181818" points="178.91,217.1969,171.6416,210.5508,174.1677,215.6123,169.1063,218.1385,178.91,217.1969" style="stroke:#181818;stroke-width:1;"/></g><!--link Manager to UC9--><g class="link" data-entity-1="Manager" data-entity-2="UC9" data-source-line="66" data-uid="lnk48" id="link_Manager_UC9"><path d="M80.13,122.6969 C105.42,117.9769 136.3822,112.1893 166.8222,106.4993" fill="none" id="Manager-to-UC9" style="stroke:#181818;stroke-width:1;"/><polygon fill="#181818" points="172.72,105.3969,163.1383,103.1187,167.8051,106.3156,164.6082,110.9825,172.72,105.3969" style="stroke:#181818;stroke-width:1;"/></g><!--link Admin to UC1--><g class="link" data-entity-1="Admin" data-entity-2="UC1" data-source-line="68" data-uid="lnk49" id="link_Admin_UC1"><path d="M72.05,451.7269 C79.08,442.7769 86.53,432.4269 92.32,422.2969 C113.5,385.2469 97.38,362.6769 128.32,333.2969 C140.13,322.0869 150.1102,316.4308 165.4702,311.3808" fill="none" id="Admin-to-UC1" style="stroke:#181818;stroke-width:1;"/><polygon fill="#181818" points="171.17,309.5069,161.3709,308.5179,166.4201,311.0685,163.8695,316.1177,171.17,309.5069" style="stroke:#181818;stroke-width:1;"/></g><!--link Admin to UC2--><g class="link" data-entity-1="Admin" data-entity-2="UC2" data-source-line="69" data-uid="lnk50" id="link_Admin_UC2"><path d="M71.93,503.7569 C78.79,512.5969 86.18,522.6569 92.32,532.2969 C110.92,561.4669 102.02,578.8369 128.32,601.2969 C140.8,611.9469 151.1412,617.3816 166.6412,622.3016" fill="none" id="Admin-to-UC2" style="stroke:#181818;stroke-width:1;"/><polygon fill="#181818" points="172.36,624.1169,164.992,617.5814,167.5943,622.6042,162.5716,625.2065,172.36,624.1169" style="stroke:#181818;stroke-width:1;"/></g><!--link Admin to UC3--><g class="link" data-entity-1="Admin" data-entity-2="UC3" data-source-line="70" data-uid="lnk51" id="link_Admin_UC3"><path d="M71.92,501.3769 C79.28,510.5269 86.97,521.3869 92.32,532.2969 C119.88,588.4269 85.77,622.4869 128.32,668.2969 C139.28,680.0869 148.8231,685.9141 164.0431,690.9441" fill="none" id="Admin-to-UC3" style="stroke:#181818;stroke-width:1;"/><polygon fill="#181818" points="169.74,692.8269,162.4498,686.2048,164.9925,691.2579,159.9394,693.8007,169.74,692.8269" style="stroke:#181818;stroke-width:1;"/></g><!--link Admin to UC4--><g class="link" data-entity-1="Admin" data-entity-2="UC4" data-source-line="71" data-uid="lnk52" id="link_Admin_UC4"><path d="M71.94,449.8669 C86.39,433.2369 106.64,412.7069 128.32,399.2969 C143.58,389.8569 156.1273,384.5477 172.7673,379.4077" fill="none" id="Admin-to-UC4" style="stroke:#181818;stroke-width:1;"/><polygon fill="#181818" points="178.5,377.6369,168.7204,376.4713,173.7227,379.1125,171.0814,384.1149,178.5,377.6369" style="stroke:#181818;stroke-width:1;"/></g><!--link Admin to UC5--><g class="link" data-entity-1="Admin" data-entity-2="UC5" data-source-line="72" data-uid="lnk53" id="link_Admin_UC5"><path d="M71.82,471.7769 C99.09,464.8369 140.8156,454.1977 176.0756,445.2177" fill="none" id="Admin-to-UC5" style="stroke:#181818;stroke-width:1;"/><polygon fill="#181818" points="181.89,443.7369,172.1812,442.0818,177.0447,444.9709,174.1556,449.8344,181.89,443.7369" style="stroke:#181818;stroke-width:1;"/></g><!--link Admin to UC6--><g class="link" data-entity-1="Admin" data-entity-2="UC6" data-source-line="73" data-uid="lnk54" id="link_Admin_UC6"><path d="M72.09,494.7769 C87.24,506.2569 108.21,521.0069 128.32,531.2969 C144.8,539.7269 158.0957,545.0763 174.9657,550.7763" fill="none" id="Admin-to-UC6" style="stroke:#181818;stroke-width:1;"/><polygon fill="#181818" points="180.65,552.6969,173.4039,546.0264,175.9131,551.0964,170.8431,553.6055,180.65,552.6969" style="stroke:#181818;stroke-width:1;"/></g><!--link Admin to UC7--><g class="link" data-entity-1="Admin" data-entity-2="UC7" data-source-line="74" data-uid="lnk55" id="link_Admin_UC7"><path d="M71.88,454.3169 C79.5,445.0269 87.39,433.7969 92.32,422.2969 C132.63,328.4369 62.33,273.2669 128.32,195.2969 C138.98,182.7069 148.8659,176.6632 164.5459,171.8332" fill="none" id="Admin-to-UC7" style="stroke:#181818;stroke-width:1;"/><polygon fill="#181818" points="170.28,170.0669,160.5013,168.8936,165.5016,171.5388,162.8564,176.5391,170.28,170.0669" style="stroke:#181818;stroke-width:1;"/></g><!--link Admin to UC8--><g class="link" data-entity-1="Admin" data-entity-2="UC8" data-source-line="75" data-uid="lnk56" id="link_Admin_UC8"><path d="M71.91,453.5869 C79.35,444.3869 87.1,433.3969 92.32,422.2969 C122.8,357.5169 80.72,318.7669 128.32,265.2969 C138.82,253.5069 147.8947,247.6629 162.7747,242.4729" fill="none" id="Admin-to-UC8" style="stroke:#181818;stroke-width:1;"/><polygon fill="#181818" points="168.44,240.4969,158.6247,239.684,163.7189,242.1435,161.2594,247.2377,168.44,240.4969" style="stroke:#181818;stroke-width:1;"/></g><!--link Admin to UC9--><g class="link" data-entity-1="Admin" data-entity-2="UC9" data-source-line="76" data-uid="lnk57" id="link_Admin_UC9"><path d="M72.09,454.4069 C79.74,445.1269 87.59,433.8769 92.32,422.2969 C141.98,300.8569 45.79,231.2869 128.32,129.2969 C138.39,116.8569 147.573,110.8296 162.733,105.8196" fill="none" id="Admin-to-UC9" style="stroke:#181818;stroke-width:1;"/><polygon fill="#181818" points="168.43,103.9369,158.6294,102.963,163.6825,105.5058,161.1397,110.5589,168.43,103.9369" style="stroke:#181818;stroke-width:1;"/></g><!--link Admin to UC10--><g class="link" data-entity-1="Admin" data-entity-2="UC10" data-source-line="77" data-uid="lnk58" id="link_Admin_UC10"><path d="M71.82,479.8769 C95.41,482.6769 128.1918,486.5795 161.0418,490.4795" fill="none" id="Admin-to-UC10" style="stroke:#181818;stroke-width:1;"/><polygon fill="#181818" points="167,491.1869,158.5343,486.1537,162.0349,490.5974,157.5912,494.0979,167,491.1869" style="stroke:#181818;stroke-width:1;"/></g><!--link Admin to UC11--><g class="link" data-entity-1="Admin" data-entity-2="UC11" data-source-line="78" data-uid="lnk59" id="link_Admin_UC11"><path d="M72.03,500.2169 C79.67,509.4969 87.53,520.7369 92.32,532.2969 C138.72,644.1169 52.11,708.2369 128.32,802.2969 C137.8,813.9969 145.856,819.7233 160.026,824.9133" fill="none" id="Admin-to-UC11" style="stroke:#181818;stroke-width:1;"/><polygon fill="#181818" points="165.66,826.9769,158.5847,820.1256,160.965,825.2573,155.8333,827.6376,165.66,826.9769" style="stroke:#181818;stroke-width:1;"/></g><!--link Admin to UC12--><g class="link" data-entity-1="Admin" data-entity-2="UC12" data-source-line="79" data-uid="lnk60" id="link_Admin_UC12"><path d="M71.99,500.5969 C79.54,509.8369 87.34,520.9569 92.32,532.2969 C129.39,616.5769 68.24,666.5369 128.32,736.2969 C138.86,748.5269 148.3409,754.4226 163.6609,759.2826" fill="none" id="Admin-to-UC12" style="stroke:#181818;stroke-width:1;"/><polygon fill="#181818" points="169.38,761.0969,162.0108,754.5627,164.6141,759.585,159.5918,762.1882,169.38,761.0969" style="stroke:#181818;stroke-width:1;"/></g><!--SRC=[VLJBRjim4BppAnQw5aOZloJxKC1GMi10YW29qrCkj4JB12Wo9Qa4Hj5_xvAIPLEiSp4qm-7kx79WowrWi9KbhvYqFuJwW0cy60O5nPzxJcjD6q84ErYm2ZIlZnOghbbfkPA4qD8g3OzlJ5Fyw65ohlSg2zKqL5PC9q0D3EWitB7oA7b9nQjyOkPD3Se1zSgVLD9wG9kguTZSkQ2onW6IO8Bdax6iIU0F8G2jOQMRvQL8NU6aq8pQoyX989bwoKxZtBSaCo_P6CDhUKCoxoHLvGUEZXUTZoDQP_1iqKrulWpEsJlJt9v2IUOblpZxk64XlmZkgJdk5TLLg5XT59ksuXOUL1qgqZilwLRlGg7DID1jzBl11xozqxHRQY6KkPQWHYgyr4LA7TpWo04yId6w9ELhzzRk09-bnWmOeDxl5tUV7p0zFee0J5Q-vFzAfrDVedZQxhR5vW4q-zrYYWsO5XlfqsUTFwkRTnVx_AzXJmqlGN1ZktxdOclSWKkCIuD1wvOtJ739lAeFzneQPZKltNbrVZJZ5TxA6Wwj4FtqxzpmFHUOZ6k7VmavUu79v9iRV4pCnqGs9d921jyzDOsOMSGi8cOPCMaQKt7jUSHa4OCcX_-8uTgOMKHC5Z5OgD__80bnFi8hGlnp30k-HjC0pG8q3z0YGCi0PG7A0xGAkz-5C7I3k_q7]--></g></svg>